<mxfile modified="2020-10-06T09:58:35.057Z" host="app.diagrams.net" agent="5.0 (Windows NT 10.0; Win64; x64) AppleWebKit/537.36 (KHTML, like Gecko) Chrome/85.0.4183.121 Safari/537.36" etag="i_wnAyUo3kDdIhOhaE1t" version="13.7.7" type="github" pages="10">
  <diagram id="Ht1M8jgEwFfnCIfOTk4-" name="Page-1">
    <mxGraphModel dx="1038" dy="579" grid="1" gridSize="10" guides="1" tooltips="1" connect="1" arrows="1" fold="1" page="1" pageScale="1" pageWidth="1169" pageHeight="827" math="0" shadow="0">
      <root>
        <mxCell id="0" />
        <mxCell id="1" parent="0" />
        <mxCell id="-QjtrjUzRDEMRZ5MF8oH-14" value="Amazon SageMaker" style="whiteSpace=wrap;html=1;fillColor=none;fontSize=14;fontColor=#000000;dashed=0;fontStyle=0;align=center;verticalAlign=top;strokeColor=#D86613;gradientColor=none;spacingLeft=0;labelPosition=center;verticalLabelPosition=bottom;" parent="1" vertex="1">
          <mxGeometry x="872.5" y="174.5" width="232" height="160" as="geometry" />
        </mxCell>
        <mxCell id="SCVMTBWpLvtzJIhz15lM-34" value="" style="whiteSpace=wrap;html=1;fillColor=none;fontSize=14;fontColor=#000000;dashed=0;fontStyle=0;align=center;verticalAlign=top;strokeColor=#CCCCCC;gradientColor=none;spacingLeft=0;labelPosition=center;verticalLabelPosition=bottom;" parent="1" vertex="1">
          <mxGeometry x="882.5" y="257.5" width="210" height="70" as="geometry" />
        </mxCell>
        <mxCell id="-QjtrjUzRDEMRZ5MF8oH-1" value="" style="outlineConnect=0;fontColor=#232F3E;gradientColor=none;fillColor=#277116;strokeColor=none;dashed=0;verticalLabelPosition=bottom;verticalAlign=top;align=center;html=1;fontSize=12;fontStyle=0;aspect=fixed;pointerEvents=1;shape=mxgraph.aws4.door_lock;" parent="1" vertex="1">
          <mxGeometry x="64.5" y="260.5" width="78" height="78" as="geometry" />
        </mxCell>
        <mxCell id="-QjtrjUzRDEMRZ5MF8oH-2" value="" style="outlineConnect=0;fontColor=#232F3E;gradientColor=none;fillColor=#277116;strokeColor=none;dashed=0;verticalLabelPosition=bottom;verticalAlign=top;align=center;html=1;fontSize=12;fontStyle=0;aspect=fixed;pointerEvents=1;shape=mxgraph.aws4.car;" parent="1" vertex="1">
          <mxGeometry x="64.5" y="356" width="78" height="78" as="geometry" />
        </mxCell>
        <mxCell id="-QjtrjUzRDEMRZ5MF8oH-3" value="" style="outlineConnect=0;fontColor=#232F3E;gradientColor=none;fillColor=#277116;strokeColor=none;dashed=0;verticalLabelPosition=bottom;verticalAlign=top;align=center;html=1;fontSize=12;fontStyle=0;aspect=fixed;pointerEvents=1;shape=mxgraph.aws4.camera;" parent="1" vertex="1">
          <mxGeometry x="64.5" y="451.5" width="78" height="78" as="geometry" />
        </mxCell>
        <mxCell id="-QjtrjUzRDEMRZ5MF8oH-4" value="" style="outlineConnect=0;fontColor=#232F3E;gradientColor=none;fillColor=#277116;strokeColor=none;dashed=0;verticalLabelPosition=bottom;verticalAlign=top;align=center;html=1;fontSize=12;fontStyle=0;aspect=fixed;pointerEvents=1;shape=mxgraph.aws4.utility;" parent="1" vertex="1">
          <mxGeometry x="165.5" y="306.5" width="78" height="78" as="geometry" />
        </mxCell>
        <mxCell id="-QjtrjUzRDEMRZ5MF8oH-5" value="" style="outlineConnect=0;fontColor=#232F3E;gradientColor=none;fillColor=#277116;strokeColor=none;dashed=0;verticalLabelPosition=bottom;verticalAlign=top;align=center;html=1;fontSize=12;fontStyle=0;aspect=fixed;pointerEvents=1;shape=mxgraph.aws4.coffee_pot;" parent="1" vertex="1">
          <mxGeometry x="166.5" y="410.5" width="78" height="78" as="geometry" />
        </mxCell>
        <mxCell id="-QjtrjUzRDEMRZ5MF8oH-6" value="" style="outlineConnect=0;fontColor=#232F3E;gradientColor=none;fillColor=#277116;strokeColor=none;dashed=0;verticalLabelPosition=bottom;verticalAlign=top;align=center;html=1;fontSize=12;fontStyle=0;aspect=fixed;pointerEvents=1;shape=mxgraph.aws4.lightbulb;" parent="1" vertex="1">
          <mxGeometry x="263.5" y="260.5" width="78" height="78" as="geometry" />
        </mxCell>
        <mxCell id="-QjtrjUzRDEMRZ5MF8oH-7" value="" style="outlineConnect=0;fontColor=#232F3E;gradientColor=none;fillColor=#277116;strokeColor=none;dashed=0;verticalLabelPosition=bottom;verticalAlign=top;align=center;html=1;fontSize=12;fontStyle=0;aspect=fixed;pointerEvents=1;shape=mxgraph.aws4.house;" parent="1" vertex="1">
          <mxGeometry x="261.5" y="356" width="78" height="78" as="geometry" />
        </mxCell>
        <mxCell id="-QjtrjUzRDEMRZ5MF8oH-8" value="" style="outlineConnect=0;fontColor=#232F3E;gradientColor=none;fillColor=#277116;strokeColor=none;dashed=0;verticalLabelPosition=bottom;verticalAlign=top;align=center;html=1;fontSize=12;fontStyle=0;aspect=fixed;pointerEvents=1;shape=mxgraph.aws4.thermostat;" parent="1" vertex="1">
          <mxGeometry x="261.5" y="451.5" width="78" height="78" as="geometry" />
        </mxCell>
        <mxCell id="-QjtrjUzRDEMRZ5MF8oH-9" value="1" style="rounded=1;whiteSpace=wrap;html=1;fillColor=#007CBD;strokeColor=none;fontColor=#FFFFFF;fontStyle=1;fontSize=22;" parent="1" vertex="1">
          <mxGeometry x="223.5" y="211.5" width="40" height="38" as="geometry" />
        </mxCell>
        <mxCell id="-QjtrjUzRDEMRZ5MF8oH-10" value="ML Model Executable" style="outlineConnect=0;fontColor=#232F3E;gradientColor=none;fillColor=#116D5B;strokeColor=none;dashed=0;verticalLabelPosition=bottom;verticalAlign=top;align=center;html=1;fontSize=12;fontStyle=0;aspect=fixed;pointerEvents=1;shape=mxgraph.aws4.sagemaker_model;" parent="1" vertex="1">
          <mxGeometry x="473.5" y="244.5" width="78" height="78" as="geometry" />
        </mxCell>
        <mxCell id="-QjtrjUzRDEMRZ5MF8oH-11" value="AWS Lambda Function" style="outlineConnect=0;fontColor=#232F3E;gradientColor=none;fillColor=#277116;strokeColor=none;dashed=0;verticalLabelPosition=bottom;verticalAlign=top;align=center;html=1;fontSize=12;fontStyle=0;aspect=fixed;pointerEvents=1;shape=mxgraph.aws4.lambda_function;" parent="1" vertex="1">
          <mxGeometry x="473.5" y="349.5" width="78" height="78" as="geometry" />
        </mxCell>
        <mxCell id="-QjtrjUzRDEMRZ5MF8oH-12" value="AWS IoT Greengrass Core" style="outlineConnect=0;fontColor=#232F3E;gradientColor=#60A337;gradientDirection=north;fillColor=#277116;strokeColor=#ffffff;dashed=0;verticalLabelPosition=bottom;verticalAlign=top;align=center;html=1;fontSize=12;fontStyle=0;aspect=fixed;shape=mxgraph.aws4.resourceIcon;resIcon=mxgraph.aws4.greengrass;" parent="1" vertex="1">
          <mxGeometry x="473.5" y="457.5" width="78" height="78" as="geometry" />
        </mxCell>
        <mxCell id="-QjtrjUzRDEMRZ5MF8oH-16" value="AWS IoT Core" style="outlineConnect=0;fontColor=#232F3E;gradientColor=#60A337;gradientDirection=north;fillColor=#277116;strokeColor=#ffffff;dashed=0;verticalLabelPosition=bottom;verticalAlign=top;align=center;html=1;fontSize=12;fontStyle=0;aspect=fixed;shape=mxgraph.aws4.resourceIcon;resIcon=mxgraph.aws4.internet_of_things;" parent="1" vertex="1">
          <mxGeometry x="745.5" y="451.5" width="78" height="78" as="geometry" />
        </mxCell>
        <mxCell id="-QjtrjUzRDEMRZ5MF8oH-17" value="AWS IoT Analytics" style="outlineConnect=0;fontColor=#232F3E;gradientColor=#60A337;gradientDirection=north;fillColor=#277116;strokeColor=#ffffff;dashed=0;verticalLabelPosition=bottom;verticalAlign=top;align=center;html=1;fontSize=12;fontStyle=0;aspect=fixed;shape=mxgraph.aws4.resourceIcon;resIcon=mxgraph.aws4.iot_analytics;" parent="1" vertex="1">
          <mxGeometry x="949.5" y="451.5" width="78" height="78" as="geometry" />
        </mxCell>
        <mxCell id="-QjtrjUzRDEMRZ5MF8oH-18" value="ML Model Executable" style="outlineConnect=0;fontColor=#232F3E;gradientColor=none;fillColor=#116D5B;strokeColor=none;dashed=0;verticalLabelPosition=bottom;verticalAlign=top;align=center;html=1;fontSize=12;fontStyle=0;aspect=fixed;pointerEvents=1;shape=mxgraph.aws4.sagemaker_model;" parent="1" vertex="1">
          <mxGeometry x="136.5" y="691.5" width="78" height="78" as="geometry" />
        </mxCell>
        <mxCell id="-QjtrjUzRDEMRZ5MF8oH-19" value="AWS IoT Greengrass Core" style="outlineConnect=0;fontColor=#232F3E;gradientColor=#60A337;gradientDirection=north;fillColor=#277116;strokeColor=#ffffff;dashed=0;verticalLabelPosition=bottom;verticalAlign=top;align=center;html=1;fontSize=12;fontStyle=0;aspect=fixed;shape=mxgraph.aws4.resourceIcon;resIcon=mxgraph.aws4.iot_core;" parent="1" vertex="1">
          <mxGeometry x="137.5" y="796" width="78" height="78" as="geometry" />
        </mxCell>
        <mxCell id="-QjtrjUzRDEMRZ5MF8oH-20" value="Video Camera" style="outlineConnect=0;fontColor=#232F3E;gradientColor=none;fillColor=#277116;strokeColor=none;dashed=0;verticalLabelPosition=bottom;verticalAlign=top;align=center;html=1;fontSize=12;fontStyle=0;aspect=fixed;pointerEvents=1;shape=mxgraph.aws4.camera;" parent="1" vertex="1">
          <mxGeometry x="137.5" y="903.5" width="78" height="78" as="geometry" />
        </mxCell>
        <mxCell id="-QjtrjUzRDEMRZ5MF8oH-21" value="AWS IoT Core" style="outlineConnect=0;fontColor=#232F3E;gradientColor=#60A337;gradientDirection=north;fillColor=#277116;strokeColor=#ffffff;dashed=0;verticalLabelPosition=bottom;verticalAlign=top;align=center;html=1;fontSize=12;fontStyle=0;aspect=fixed;shape=mxgraph.aws4.resourceIcon;resIcon=mxgraph.aws4.internet_of_things;" parent="1" vertex="1">
          <mxGeometry x="352.5" y="711.5" width="78" height="78" as="geometry" />
        </mxCell>
        <mxCell id="-QjtrjUzRDEMRZ5MF8oH-22" value="AWS IoT Analytics" style="outlineConnect=0;fontColor=#232F3E;gradientColor=#60A337;gradientDirection=north;fillColor=#277116;strokeColor=#ffffff;dashed=0;verticalLabelPosition=bottom;verticalAlign=top;align=center;html=1;fontSize=12;fontStyle=0;aspect=fixed;shape=mxgraph.aws4.resourceIcon;resIcon=mxgraph.aws4.iot_analytics;" parent="1" vertex="1">
          <mxGeometry x="532.5" y="708.5" width="78" height="78" as="geometry" />
        </mxCell>
        <mxCell id="-QjtrjUzRDEMRZ5MF8oH-23" value="AWS IoT Events" style="outlineConnect=0;fontColor=#232F3E;gradientColor=#60A337;gradientDirection=north;fillColor=#277116;strokeColor=#ffffff;dashed=0;verticalLabelPosition=bottom;verticalAlign=top;align=center;html=1;fontSize=12;fontStyle=0;aspect=fixed;shape=mxgraph.aws4.resourceIcon;resIcon=mxgraph.aws4.iot_events;" parent="1" vertex="1">
          <mxGeometry x="721.5" y="708.5" width="78" height="78" as="geometry" />
        </mxCell>
        <mxCell id="-QjtrjUzRDEMRZ5MF8oH-24" value="Amazon SNS" style="outlineConnect=0;fontColor=#232F3E;gradientColor=#F34482;gradientDirection=north;fillColor=#BC1356;strokeColor=#ffffff;dashed=0;verticalLabelPosition=bottom;verticalAlign=top;align=center;html=1;fontSize=12;fontStyle=0;aspect=fixed;shape=mxgraph.aws4.resourceIcon;resIcon=mxgraph.aws4.sns;" parent="1" vertex="1">
          <mxGeometry x="902.5" y="708.5" width="78" height="78" as="geometry" />
        </mxCell>
        <mxCell id="-QjtrjUzRDEMRZ5MF8oH-25" value="Amazon Kinesis&lt;br&gt;Video Streams&lt;br&gt;" style="outlineConnect=0;fontColor=#232F3E;gradientColor=#945DF2;gradientDirection=north;fillColor=#5A30B5;strokeColor=#ffffff;dashed=0;verticalLabelPosition=bottom;verticalAlign=top;align=center;html=1;fontSize=12;fontStyle=0;aspect=fixed;shape=mxgraph.aws4.resourceIcon;resIcon=mxgraph.aws4.kinesis_video_streams;" parent="1" vertex="1">
          <mxGeometry x="484.5" y="874.5" width="78" height="78" as="geometry" />
        </mxCell>
        <mxCell id="-QjtrjUzRDEMRZ5MF8oH-26" value="Mobile Application" style="outlineConnect=0;fontColor=#232F3E;gradientColor=#F54749;gradientDirection=north;fillColor=#C7131F;strokeColor=#ffffff;dashed=0;verticalLabelPosition=bottom;verticalAlign=top;align=center;html=1;fontSize=12;fontStyle=0;aspect=fixed;shape=mxgraph.aws4.resourceIcon;resIcon=mxgraph.aws4.mobile;" parent="1" vertex="1">
          <mxGeometry x="785.5" y="873.5" width="78" height="78" as="geometry" />
        </mxCell>
        <mxCell id="-QjtrjUzRDEMRZ5MF8oH-27" value="2" style="rounded=1;whiteSpace=wrap;html=1;fillColor=#007CBD;strokeColor=none;fontColor=#FFFFFF;fontStyle=1;fontSize=22;" parent="1" vertex="1">
          <mxGeometry x="483.5" y="164.5" width="40" height="38" as="geometry" />
        </mxCell>
        <mxCell id="-QjtrjUzRDEMRZ5MF8oH-28" value="3" style="rounded=1;whiteSpace=wrap;html=1;fillColor=#007CBD;strokeColor=none;fontColor=#FFFFFF;fontStyle=1;fontSize=22;" parent="1" vertex="1">
          <mxGeometry x="823.5" y="175.5" width="40" height="38" as="geometry" />
        </mxCell>
        <mxCell id="-QjtrjUzRDEMRZ5MF8oH-29" value="4" style="rounded=1;whiteSpace=wrap;html=1;fillColor=#007CBD;strokeColor=none;fontColor=#FFFFFF;fontStyle=1;fontSize=22;" parent="1" vertex="1">
          <mxGeometry x="633.5" y="399.5" width="40" height="38" as="geometry" />
        </mxCell>
        <mxCell id="-QjtrjUzRDEMRZ5MF8oH-30" value="5" style="rounded=1;whiteSpace=wrap;html=1;fillColor=#007CBD;strokeColor=none;fontColor=#FFFFFF;fontStyle=1;fontSize=22;" parent="1" vertex="1">
          <mxGeometry x="878.5" y="399.5" width="40" height="38" as="geometry" />
        </mxCell>
        <mxCell id="-QjtrjUzRDEMRZ5MF8oH-31" value="6" style="rounded=1;whiteSpace=wrap;html=1;fillColor=#007CBD;strokeColor=none;fontColor=#FFFFFF;fontStyle=1;fontSize=22;" parent="1" vertex="1">
          <mxGeometry x="136.5" y="608.5" width="40" height="38" as="geometry" />
        </mxCell>
        <mxCell id="-QjtrjUzRDEMRZ5MF8oH-32" value="7" style="rounded=1;whiteSpace=wrap;html=1;fillColor=#007CBD;strokeColor=none;fontColor=#FFFFFF;fontStyle=1;fontSize=22;" parent="1" vertex="1">
          <mxGeometry x="462.5" y="666.5" width="40" height="38" as="geometry" />
        </mxCell>
        <mxCell id="-QjtrjUzRDEMRZ5MF8oH-33" value="8" style="rounded=1;whiteSpace=wrap;html=1;fillColor=#007CBD;strokeColor=none;fontColor=#FFFFFF;fontStyle=1;fontSize=22;" parent="1" vertex="1">
          <mxGeometry x="832.5" y="666.5" width="40" height="38" as="geometry" />
        </mxCell>
        <mxCell id="-QjtrjUzRDEMRZ5MF8oH-34" value="9" style="rounded=1;whiteSpace=wrap;html=1;fillColor=#007CBD;strokeColor=none;fontColor=#FFFFFF;fontStyle=1;fontSize=22;" parent="1" vertex="1">
          <mxGeometry x="352.5" y="854.5" width="40" height="38" as="geometry" />
        </mxCell>
        <mxCell id="-QjtrjUzRDEMRZ5MF8oH-35" value="10" style="rounded=1;whiteSpace=wrap;html=1;fillColor=#007CBD;strokeColor=none;fontColor=#FFFFFF;fontStyle=1;fontSize=22;" parent="1" vertex="1">
          <mxGeometry x="652.5" y="854.5" width="40" height="38" as="geometry" />
        </mxCell>
        <mxCell id="-QjtrjUzRDEMRZ5MF8oH-47" value="Title text" style="text;html=1;resizable=0;points=[];autosize=1;align=left;verticalAlign=top;spacingTop=-4;fontSize=30;fontStyle=1" parent="1" vertex="1">
          <mxGeometry x="56.5" y="64.5" width="130" height="40" as="geometry" />
        </mxCell>
        <mxCell id="-QjtrjUzRDEMRZ5MF8oH-48" value="Subtitle text&lt;br style=&quot;font-size: 16px&quot;&gt;" style="text;html=1;resizable=0;points=[];autosize=1;align=left;verticalAlign=top;spacingTop=-4;fontSize=16;" parent="1" vertex="1">
          <mxGeometry x="56.5" y="114.5" width="100" height="20" as="geometry" />
        </mxCell>
        <mxCell id="-QjtrjUzRDEMRZ5MF8oH-49" value="Label" style="text;html=1;resizable=0;points=[];autosize=1;align=left;verticalAlign=top;spacingTop=-4;fontSize=16;fontStyle=1" parent="1" vertex="1">
          <mxGeometry x="84.5" y="164.5" width="50" height="20" as="geometry" />
        </mxCell>
        <mxCell id="SCVMTBWpLvtzJIhz15lM-1" value="" style="line;strokeWidth=2;html=1;fontSize=14;" parent="1" vertex="1">
          <mxGeometry x="52.5" y="139.5" width="1060" height="10" as="geometry" />
        </mxCell>
        <mxCell id="SCVMTBWpLvtzJIhz15lM-2" value="&lt;span&gt;Label&lt;/span&gt;" style="text;html=1;resizable=0;points=[];autosize=1;align=left;verticalAlign=top;spacingTop=-4;fontSize=14;fontStyle=1" parent="1" vertex="1">
          <mxGeometry x="442.5" y="216.5" width="50" height="20" as="geometry" />
        </mxCell>
        <mxCell id="SCVMTBWpLvtzJIhz15lM-3" value="" style="edgeStyle=orthogonalEdgeStyle;html=1;endArrow=open;elbow=vertical;startArrow=none;endFill=0;strokeColor=#545B64;rounded=0;fontSize=14;" parent="1" edge="1">
          <mxGeometry width="100" relative="1" as="geometry">
            <mxPoint x="354.5" y="394.5" as="sourcePoint" />
            <mxPoint x="404.5" y="394.5" as="targetPoint" />
          </mxGeometry>
        </mxCell>
        <mxCell id="SCVMTBWpLvtzJIhz15lM-5" value="" style="shape=curlyBracket;whiteSpace=wrap;html=1;rounded=1;fontSize=14;" parent="1" vertex="1">
          <mxGeometry x="415.5" y="248.5" width="20" height="290" as="geometry" />
        </mxCell>
        <mxCell id="SCVMTBWpLvtzJIhz15lM-17" value="&lt;span&gt;Label&lt;/span&gt;" style="edgeStyle=orthogonalEdgeStyle;html=1;endArrow=open;elbow=vertical;startArrow=none;endFill=0;strokeColor=#545B64;rounded=0;fontSize=14;strokeWidth=2;" parent="1" edge="1">
          <mxGeometry x="-0.037" y="20" width="100" relative="1" as="geometry">
            <mxPoint x="584.5" y="254.5" as="sourcePoint" />
            <mxPoint x="854.5" y="254.5" as="targetPoint" />
            <mxPoint as="offset" />
          </mxGeometry>
        </mxCell>
        <mxCell id="SCVMTBWpLvtzJIhz15lM-18" value="&lt;span&gt;Label&lt;/span&gt;" style="edgeStyle=orthogonalEdgeStyle;html=1;endArrow=none;elbow=vertical;startArrow=open;endFill=0;strokeColor=#545B64;rounded=0;fontSize=14;strokeWidth=2;startFill=0;" parent="1" edge="1">
          <mxGeometry x="-0.037" y="20" width="100" relative="1" as="geometry">
            <mxPoint x="582.5" y="318" as="sourcePoint" />
            <mxPoint x="852.5" y="318" as="targetPoint" />
            <mxPoint as="offset" />
          </mxGeometry>
        </mxCell>
        <mxCell id="SCVMTBWpLvtzJIhz15lM-19" value="&lt;span&gt;Label&lt;/span&gt;" style="edgeStyle=orthogonalEdgeStyle;html=1;endArrow=open;elbow=vertical;startArrow=none;endFill=0;strokeColor=#545B64;rounded=0;fontSize=14;strokeWidth=2;" parent="1" edge="1">
          <mxGeometry x="-0.037" y="20" width="100" relative="1" as="geometry">
            <mxPoint x="594.5000000000002" y="484.5" as="sourcePoint" />
            <mxPoint x="714.5" y="484.5" as="targetPoint" />
            <mxPoint as="offset" />
          </mxGeometry>
        </mxCell>
        <mxCell id="SCVMTBWpLvtzJIhz15lM-20" value="&lt;span&gt;Label&lt;/span&gt;" style="edgeStyle=orthogonalEdgeStyle;html=1;endArrow=open;elbow=vertical;startArrow=none;endFill=0;strokeColor=#545B64;rounded=0;fontSize=14;strokeWidth=2;" parent="1" edge="1">
          <mxGeometry x="-0.037" y="20" width="100" relative="1" as="geometry">
            <mxPoint x="838.5000000000002" y="487.5" as="sourcePoint" />
            <mxPoint x="924.5" y="487.5" as="targetPoint" />
            <mxPoint as="offset" />
          </mxGeometry>
        </mxCell>
        <mxCell id="SCVMTBWpLvtzJIhz15lM-21" value="Label" style="text;html=1;resizable=0;points=[];autosize=1;align=left;verticalAlign=top;spacingTop=-4;fontSize=16;fontStyle=1" parent="1" vertex="1">
          <mxGeometry x="66.5" y="576.5" width="50" height="20" as="geometry" />
        </mxCell>
        <mxCell id="SCVMTBWpLvtzJIhz15lM-22" value="&lt;span&gt;Label&lt;/span&gt;" style="text;html=1;resizable=0;points=[];autosize=1;align=left;verticalAlign=top;spacingTop=-4;fontSize=14;fontStyle=1" parent="1" vertex="1">
          <mxGeometry x="136.5" y="656.5" width="50" height="20" as="geometry" />
        </mxCell>
        <mxCell id="SCVMTBWpLvtzJIhz15lM-23" value="" style="shape=curlyBracket;whiteSpace=wrap;html=1;rounded=1;fontSize=14;" parent="1" vertex="1">
          <mxGeometry x="76.5" y="691.5" width="20" height="290" as="geometry" />
        </mxCell>
        <mxCell id="SCVMTBWpLvtzJIhz15lM-24" value="Video Events" style="edgeStyle=orthogonalEdgeStyle;html=1;endArrow=open;elbow=vertical;startArrow=none;endFill=0;strokeColor=#545B64;rounded=0;fontSize=14;strokeWidth=2;" parent="1" edge="1">
          <mxGeometry x="-0.037" y="20" width="100" relative="1" as="geometry">
            <mxPoint x="261.5" y="753.5" as="sourcePoint" />
            <mxPoint x="342.5" y="753.5" as="targetPoint" />
            <mxPoint as="offset" />
          </mxGeometry>
        </mxCell>
        <mxCell id="SCVMTBWpLvtzJIhz15lM-25" value="" style="edgeStyle=orthogonalEdgeStyle;html=1;endArrow=open;elbow=vertical;startArrow=none;endFill=0;strokeColor=#545B64;rounded=0;fontSize=14;strokeWidth=2;" parent="1" edge="1">
          <mxGeometry x="-0.037" y="20" width="100" relative="1" as="geometry">
            <mxPoint x="443" y="750" as="sourcePoint" />
            <mxPoint x="524" y="750" as="targetPoint" />
            <mxPoint as="offset" />
          </mxGeometry>
        </mxCell>
        <mxCell id="SCVMTBWpLvtzJIhz15lM-26" value="" style="edgeStyle=orthogonalEdgeStyle;html=1;endArrow=open;elbow=vertical;startArrow=none;endFill=0;strokeColor=#545B64;rounded=0;fontSize=14;strokeWidth=2;" parent="1" edge="1">
          <mxGeometry x="-0.037" y="20" width="100" relative="1" as="geometry">
            <mxPoint x="622.5" y="750" as="sourcePoint" />
            <mxPoint x="703.5" y="750" as="targetPoint" />
            <mxPoint as="offset" />
          </mxGeometry>
        </mxCell>
        <mxCell id="SCVMTBWpLvtzJIhz15lM-27" value="" style="edgeStyle=orthogonalEdgeStyle;html=1;endArrow=open;elbow=vertical;startArrow=none;endFill=0;strokeColor=#545B64;rounded=0;fontSize=14;strokeWidth=2;" parent="1" edge="1">
          <mxGeometry x="-0.037" y="20" width="100" relative="1" as="geometry">
            <mxPoint x="811.5" y="747.5" as="sourcePoint" />
            <mxPoint x="892.5" y="747.5" as="targetPoint" />
            <mxPoint as="offset" />
          </mxGeometry>
        </mxCell>
        <mxCell id="SCVMTBWpLvtzJIhz15lM-28" value="Video Stream" style="edgeStyle=orthogonalEdgeStyle;html=1;endArrow=open;elbow=vertical;startArrow=none;endFill=0;strokeColor=#545B64;rounded=0;fontSize=14;strokeWidth=2;" parent="1" edge="1">
          <mxGeometry x="0.0038" y="-11" width="100" relative="1" as="geometry">
            <mxPoint x="262" y="913" as="sourcePoint" />
            <mxPoint x="472.5" y="913.5" as="targetPoint" />
            <mxPoint as="offset" />
            <Array as="points">
              <mxPoint x="367.5" y="913.5" />
            </Array>
          </mxGeometry>
        </mxCell>
        <mxCell id="SCVMTBWpLvtzJIhz15lM-29" value="" style="edgeStyle=orthogonalEdgeStyle;html=1;endArrow=open;elbow=vertical;startArrow=none;endFill=0;strokeColor=#545B64;rounded=0;fontSize=14;strokeWidth=2;" parent="1" edge="1">
          <mxGeometry x="0.0038" y="-11" width="100" relative="1" as="geometry">
            <mxPoint x="575.0714285714287" y="913.2142857142858" as="sourcePoint" />
            <mxPoint x="762.5" y="913.5" as="targetPoint" />
            <mxPoint as="offset" />
            <Array as="points">
              <mxPoint x="680.5" y="913.5" />
            </Array>
          </mxGeometry>
        </mxCell>
        <mxCell id="SCVMTBWpLvtzJIhz15lM-30" value="Build" style="outlineConnect=0;gradientColor=none;fontColor=#545B64;strokeColor=none;fillColor=#879196;dashed=0;verticalLabelPosition=bottom;verticalAlign=top;align=center;html=1;fontSize=12;fontStyle=0;aspect=fixed;shape=mxgraph.aws4.illustration_devices;pointerEvents=1" parent="1" vertex="1">
          <mxGeometry x="962.5" y="179.5" width="52" height="38" as="geometry" />
        </mxCell>
        <mxCell id="SCVMTBWpLvtzJIhz15lM-31" value="Train" style="outlineConnect=0;gradientColor=none;fontColor=#545B64;strokeColor=none;fillColor=#879196;dashed=0;verticalLabelPosition=bottom;verticalAlign=top;align=center;html=1;fontSize=12;fontStyle=0;aspect=fixed;shape=mxgraph.aws4.illustration_devices;pointerEvents=1" parent="1" vertex="1">
          <mxGeometry x="892.5" y="267.5" width="52" height="38" as="geometry" />
        </mxCell>
        <mxCell id="SCVMTBWpLvtzJIhz15lM-32" value="Optimize" style="outlineConnect=0;gradientColor=none;fontColor=#545B64;strokeColor=none;fillColor=#879196;dashed=0;verticalLabelPosition=bottom;verticalAlign=top;align=center;html=1;fontSize=12;fontStyle=0;aspect=fixed;shape=mxgraph.aws4.illustration_devices;pointerEvents=1" parent="1" vertex="1">
          <mxGeometry x="1032.5" y="267.5" width="52" height="38" as="geometry" />
        </mxCell>
        <mxCell id="SCVMTBWpLvtzJIhz15lM-33" value="" style="edgeStyle=orthogonalEdgeStyle;html=1;endArrow=open;elbow=vertical;startArrow=none;endFill=0;strokeColor=#545B64;rounded=0;fontSize=14;" parent="1" edge="1">
          <mxGeometry width="100" relative="1" as="geometry">
            <mxPoint x="958.5" y="293.5" as="sourcePoint" />
            <mxPoint x="1018.5" y="293.5" as="targetPoint" />
          </mxGeometry>
        </mxCell>
        <mxCell id="SCVMTBWpLvtzJIhz15lM-35" value="" style="edgeStyle=orthogonalEdgeStyle;html=1;endArrow=open;elbow=vertical;startArrow=none;endFill=0;strokeColor=#545B64;rounded=0;fontSize=14;" parent="1" edge="1">
          <mxGeometry width="100" relative="1" as="geometry">
            <mxPoint x="992.5" y="236.46774193548387" as="sourcePoint" />
            <mxPoint x="992.5" y="256.4677419354839" as="targetPoint" />
          </mxGeometry>
        </mxCell>
        <mxCell id="7OVz4w7n9kzEPWy-4BBC-3" value="" style="rounded=0;whiteSpace=wrap;html=1;fillColor=#EAEDED;fontSize=22;fontColor=#FFFFFF;strokeColor=none;labelBackgroundColor=none;" parent="1" vertex="1">
          <mxGeometry x="1151" y="51" width="539" height="1220" as="geometry" />
        </mxCell>
        <mxCell id="7OVz4w7n9kzEPWy-4BBC-4" value="1" style="rounded=1;whiteSpace=wrap;html=1;fillColor=#007CBD;strokeColor=none;fontColor=#FFFFFF;fontStyle=1;fontSize=22;labelBackgroundColor=none;" parent="1" vertex="1">
          <mxGeometry x="1169" y="63" width="40" height="38" as="geometry" />
        </mxCell>
        <mxCell id="7OVz4w7n9kzEPWy-4BBC-5" value="2" style="rounded=1;whiteSpace=wrap;html=1;fillColor=#007CBD;strokeColor=none;fontColor=#FFFFFF;fontStyle=1;fontSize=22;labelBackgroundColor=none;" parent="1" vertex="1">
          <mxGeometry x="1167.5" y="185" width="40" height="38" as="geometry" />
        </mxCell>
        <mxCell id="7OVz4w7n9kzEPWy-4BBC-6" value="3" style="rounded=1;whiteSpace=wrap;html=1;fillColor=#007CBD;strokeColor=none;fontColor=#FFFFFF;fontStyle=1;fontSize=22;labelBackgroundColor=none;" parent="1" vertex="1">
          <mxGeometry x="1167.5" y="305" width="40" height="38" as="geometry" />
        </mxCell>
        <mxCell id="7OVz4w7n9kzEPWy-4BBC-7" value="4" style="rounded=1;whiteSpace=wrap;html=1;fillColor=#007CBD;strokeColor=none;fontColor=#FFFFFF;fontStyle=1;fontSize=22;labelBackgroundColor=none;" parent="1" vertex="1">
          <mxGeometry x="1167.5" y="419" width="40" height="38" as="geometry" />
        </mxCell>
        <mxCell id="7OVz4w7n9kzEPWy-4BBC-8" value="5" style="rounded=1;whiteSpace=wrap;html=1;fillColor=#007CBD;strokeColor=none;fontColor=#FFFFFF;fontStyle=1;fontSize=22;labelBackgroundColor=none;" parent="1" vertex="1">
          <mxGeometry x="1169" y="536" width="40" height="38" as="geometry" />
        </mxCell>
        <mxCell id="7OVz4w7n9kzEPWy-4BBC-9" value="6" style="rounded=1;whiteSpace=wrap;html=1;fillColor=#007CBD;strokeColor=none;fontColor=#FFFFFF;fontStyle=1;fontSize=22;labelBackgroundColor=none;" parent="1" vertex="1">
          <mxGeometry x="1170" y="651" width="40" height="38" as="geometry" />
        </mxCell>
        <mxCell id="7OVz4w7n9kzEPWy-4BBC-10" value="7" style="rounded=1;whiteSpace=wrap;html=1;fillColor=#007CBD;strokeColor=none;fontColor=#FFFFFF;fontStyle=1;fontSize=22;labelBackgroundColor=none;" parent="1" vertex="1">
          <mxGeometry x="1169.5" y="767" width="40" height="38" as="geometry" />
        </mxCell>
        <mxCell id="7OVz4w7n9kzEPWy-4BBC-11" value="8" style="rounded=1;whiteSpace=wrap;html=1;fillColor=#007CBD;strokeColor=none;fontColor=#FFFFFF;fontStyle=1;fontSize=22;labelBackgroundColor=none;" parent="1" vertex="1">
          <mxGeometry x="1170" y="885" width="40" height="38" as="geometry" />
        </mxCell>
        <mxCell id="7OVz4w7n9kzEPWy-4BBC-12" value="9" style="rounded=1;whiteSpace=wrap;html=1;fillColor=#007CBD;strokeColor=none;fontColor=#FFFFFF;fontStyle=1;fontSize=22;labelBackgroundColor=none;" parent="1" vertex="1">
          <mxGeometry x="1168" y="1005" width="40" height="38" as="geometry" />
        </mxCell>
        <mxCell id="7OVz4w7n9kzEPWy-4BBC-13" value="&lt;span&gt;Lorem ipsum dolor sit amet, consectetur adipiscing elit, sed do eiusmod tempor incididunt ut labore et dolore magna aliqua. Ut enim ad minim veniam, quis nostrud exercitation ullamco laboris nisi ut aliquip ex ea commodo consequat. Duis aute irure dolor in reprehenderit in voluptate velit esse cillum dolore eu fugiat nulla pariatur. Excepteur sint occaecat cupidatat non proident, sunt in culpa qui officia deserunt mollit anim id est laborum.&lt;/span&gt;&lt;br&gt;" style="text;html=1;align=left;verticalAlign=top;spacingTop=-4;fontSize=14;labelBackgroundColor=none;whiteSpace=wrap;" parent="1" vertex="1">
          <mxGeometry x="1220.5" y="62.5" width="449" height="118" as="geometry" />
        </mxCell>
        <mxCell id="7OVz4w7n9kzEPWy-4BBC-14" value="&lt;span&gt;Lorem ipsum dolor sit amet, consectetur adipiscing elit, sed do eiusmod tempor incididunt ut labore et dolore magna aliqua. Ut enim ad minim veniam, quis nostrud exercitation ullamco laboris nisi ut aliquip ex ea commodo consequat. Duis aute irure dolor in reprehenderit in voluptate velit esse cillum dolore eu fugiat nulla pariatur. Excepteur sint occaecat cupidatat non proident, sunt in culpa qui officia deserunt mollit anim id est laborum.&lt;/span&gt;&lt;br&gt;" style="text;html=1;align=left;verticalAlign=top;spacingTop=-4;fontSize=14;labelBackgroundColor=none;whiteSpace=wrap;" parent="1" vertex="1">
          <mxGeometry x="1219.5" y="185.5" width="450" height="115" as="geometry" />
        </mxCell>
        <mxCell id="7OVz4w7n9kzEPWy-4BBC-15" value="&lt;span&gt;Lorem ipsum dolor sit amet, consectetur adipiscing elit, sed do eiusmod tempor incididunt ut labore et dolore magna aliqua. Ut enim ad minim veniam, quis nostrud exercitation ullamco laboris nisi ut aliquip ex ea commodo consequat. Duis aute irure dolor in reprehenderit in voluptate velit esse cillum dolore eu fugiat nulla pariatur. Excepteur sint occaecat cupidatat non proident, sunt in culpa qui officia deserunt mollit anim id est laborum.&lt;/span&gt;&lt;br&gt;" style="text;html=1;align=left;verticalAlign=top;spacingTop=-4;fontSize=14;labelBackgroundColor=none;whiteSpace=wrap;" parent="1" vertex="1">
          <mxGeometry x="1219.5" y="303.5" width="450" height="117" as="geometry" />
        </mxCell>
        <mxCell id="7OVz4w7n9kzEPWy-4BBC-16" value="&lt;span&gt;Lorem ipsum dolor sit amet, consectetur adipiscing elit, sed do eiusmod tempor incididunt ut labore et dolore magna aliqua. Ut enim ad minim veniam, quis nostrud exercitation ullamco laboris nisi ut aliquip ex ea commodo consequat. Duis aute irure dolor in reprehenderit in voluptate velit esse cillum dolore eu fugiat nulla pariatur. Excepteur sint occaecat cupidatat non proident, sunt in culpa qui officia deserunt mollit anim id est laborum.&lt;/span&gt;&lt;br&gt;" style="text;html=1;align=left;verticalAlign=top;spacingTop=-4;fontSize=14;labelBackgroundColor=none;whiteSpace=wrap;" parent="1" vertex="1">
          <mxGeometry x="1219.5" y="419.5" width="450" height="121" as="geometry" />
        </mxCell>
        <mxCell id="7OVz4w7n9kzEPWy-4BBC-17" value="&lt;span&gt;Lorem ipsum dolor sit amet, consectetur adipiscing elit, sed do eiusmod tempor incididunt ut labore et dolore magna aliqua. Ut enim ad minim veniam, quis nostrud exercitation ullamco laboris nisi ut aliquip ex ea commodo consequat. Duis aute irure dolor in reprehenderit in voluptate velit esse cillum dolore eu fugiat nulla pariatur. Excepteur sint occaecat cupidatat non proident, sunt in culpa qui officia deserunt mollit anim id est laborum.&lt;/span&gt;&lt;br&gt;" style="text;html=1;align=left;verticalAlign=top;spacingTop=-4;fontSize=14;labelBackgroundColor=none;whiteSpace=wrap;" parent="1" vertex="1">
          <mxGeometry x="1220.5" y="536.5" width="449" height="114" as="geometry" />
        </mxCell>
        <mxCell id="7OVz4w7n9kzEPWy-4BBC-18" value="&lt;span&gt;Lorem ipsum dolor sit amet, consectetur adipiscing elit, sed do eiusmod tempor incididunt ut labore et dolore magna aliqua. Ut enim ad minim veniam, quis nostrud exercitation ullamco laboris nisi ut aliquip ex ea commodo consequat. Duis aute irure dolor in reprehenderit in voluptate velit esse cillum dolore eu fugiat nulla pariatur. Excepteur sint occaecat cupidatat non proident, sunt in culpa qui officia deserunt mollit anim id est laborum.&lt;/span&gt;&lt;br&gt;" style="text;html=1;align=left;verticalAlign=top;spacingTop=-4;fontSize=14;labelBackgroundColor=none;whiteSpace=wrap;" parent="1" vertex="1">
          <mxGeometry x="1220.5" y="652.5" width="450" height="118" as="geometry" />
        </mxCell>
        <mxCell id="7OVz4w7n9kzEPWy-4BBC-19" value="&lt;span&gt;Lorem ipsum dolor sit amet, consectetur adipiscing elit, sed do eiusmod tempor incididunt ut labore et dolore magna aliqua. Ut enim ad minim veniam, quis nostrud exercitation ullamco laboris nisi ut aliquip ex ea commodo consequat. Duis aute irure dolor in reprehenderit in voluptate velit esse cillum dolore eu fugiat nulla pariatur. Excepteur sint occaecat cupidatat non proident, sunt in culpa qui officia deserunt mollit anim id est laborum.&lt;/span&gt;&lt;br&gt;" style="text;html=1;align=left;verticalAlign=top;spacingTop=-4;fontSize=14;labelBackgroundColor=none;whiteSpace=wrap;" parent="1" vertex="1">
          <mxGeometry x="1220.5" y="767.5" width="449" height="113" as="geometry" />
        </mxCell>
        <mxCell id="7OVz4w7n9kzEPWy-4BBC-20" value="&lt;span&gt;Lorem ipsum dolor sit amet, consectetur adipiscing elit, sed do eiusmod tempor incididunt ut labore et dolore magna aliqua. Ut enim ad minim veniam, quis nostrud exercitation ullamco laboris nisi ut aliquip ex ea commodo consequat. Duis aute irure dolor in reprehenderit in voluptate velit esse cillum dolore eu fugiat nulla pariatur. Excepteur sint occaecat cupidatat non proident, sunt in culpa qui officia deserunt mollit anim id est laborum.&lt;/span&gt;&lt;br&gt;" style="text;html=1;align=left;verticalAlign=top;spacingTop=-4;fontSize=14;labelBackgroundColor=none;whiteSpace=wrap;" parent="1" vertex="1">
          <mxGeometry x="1220.5" y="886.5" width="449" height="124" as="geometry" />
        </mxCell>
        <mxCell id="7OVz4w7n9kzEPWy-4BBC-21" value="&lt;span&gt;Lorem ipsum dolor sit amet, consectetur adipiscing elit, sed do eiusmod tempor incididunt ut labore et dolore magna aliqua. Ut enim ad minim veniam, quis nostrud exercitation ullamco laboris nisi ut aliquip ex ea commodo consequat. Duis aute irure dolor in reprehenderit in voluptate velit esse cillum dolore eu fugiat nulla pariatur. Excepteur sint occaecat cupidatat non proident, sunt in culpa qui officia deserunt mollit anim id est laborum.&lt;/span&gt;&lt;br&gt;" style="text;html=1;align=left;verticalAlign=top;spacingTop=-4;fontSize=14;labelBackgroundColor=none;whiteSpace=wrap;" parent="1" vertex="1">
          <mxGeometry x="1220.5" y="1005.5" width="449" height="115" as="geometry" />
        </mxCell>
        <mxCell id="7OVz4w7n9kzEPWy-4BBC-22" value="10" style="rounded=1;whiteSpace=wrap;html=1;fillColor=#007CBD;strokeColor=none;fontColor=#FFFFFF;fontStyle=1;fontSize=22;labelBackgroundColor=none;" parent="1" vertex="1">
          <mxGeometry x="1169" y="1130.5" width="40" height="38" as="geometry" />
        </mxCell>
        <mxCell id="7OVz4w7n9kzEPWy-4BBC-23" value="&lt;span&gt;Lorem ipsum dolor sit amet, consectetur adipiscing elit, sed do eiusmod tempor incididunt ut labore et dolore magna aliqua. Ut enim ad minim veniam, quis nostrud exercitation ullamco laboris nisi ut aliquip ex ea commodo consequat. Duis aute irure dolor in reprehenderit in voluptate velit esse cillum dolore eu fugiat nulla pariatur. Excepteur sint occaecat cupidatat non proident, sunt in culpa qui officia deserunt mollit anim id est laborum.&lt;/span&gt;&lt;br&gt;" style="text;html=1;align=left;verticalAlign=top;spacingTop=-4;fontSize=14;labelBackgroundColor=none;whiteSpace=wrap;" parent="1" vertex="1">
          <mxGeometry x="1221.5" y="1131" width="449" height="115" as="geometry" />
        </mxCell>
      </root>
    </mxGraphModel>
  </diagram>
  <diagram id="hAgcQKXH3loqCXleQwWN" name="QNAP WORKING COPY">
    <mxGraphModel dx="1529" dy="681" grid="1" gridSize="10" guides="1" tooltips="1" connect="1" arrows="1" fold="1" page="1" pageScale="1" pageWidth="1169" pageHeight="827" math="0" shadow="0">
      <root>
        <mxCell id="-_ASoIUO84pkn09L_Hc0-0" />
        <mxCell id="-_ASoIUO84pkn09L_Hc0-1" parent="-_ASoIUO84pkn09L_Hc0-0" />
        <mxCell id="gFqh7jiT6pV3XqUbgU2W-14" value="" style="rounded=1;whiteSpace=wrap;html=1;align=left;" vertex="1" parent="-_ASoIUO84pkn09L_Hc0-1">
          <mxGeometry x="60" y="180" width="570" height="400" as="geometry" />
        </mxCell>
        <mxCell id="gFqh7jiT6pV3XqUbgU2W-0" value="UHI AWS Review" style="text;html=1;resizable=0;points=[];autosize=1;align=left;verticalAlign=top;spacingTop=-4;fontSize=30;fontStyle=1" vertex="1" parent="-_ASoIUO84pkn09L_Hc0-1">
          <mxGeometry x="56.5" y="64.5" width="250" height="40" as="geometry" />
        </mxCell>
        <mxCell id="gFqh7jiT6pV3XqUbgU2W-1" value="DECOUPLE WITH STORAGE BETWEEN VEEAM AND STORAGE GATEWAY" style="text;html=1;resizable=0;points=[];autosize=1;align=left;verticalAlign=top;spacingTop=-4;fontSize=16;" vertex="1" parent="-_ASoIUO84pkn09L_Hc0-1">
          <mxGeometry x="56.5" y="114.5" width="580" height="20" as="geometry" />
        </mxCell>
        <mxCell id="gFqh7jiT6pV3XqUbgU2W-2" value="" style="line;strokeWidth=2;html=1;fontSize=14;" vertex="1" parent="-_ASoIUO84pkn09L_Hc0-1">
          <mxGeometry x="52.5" y="139.5" width="1060" height="10" as="geometry" />
        </mxCell>
        <mxCell id="gFqh7jiT6pV3XqUbgU2W-3" value="" style="pointerEvents=1;shadow=0;dashed=0;html=1;strokeColor=none;fillColor=#434445;aspect=fixed;labelPosition=center;verticalLabelPosition=bottom;verticalAlign=top;align=center;outlineConnect=0;shape=mxgraph.vvd.virtual_machine;" vertex="1" parent="-_ASoIUO84pkn09L_Hc0-1">
          <mxGeometry x="106.5" y="190" width="50" height="50" as="geometry" />
        </mxCell>
        <mxCell id="gFqh7jiT6pV3XqUbgU2W-4" value="" style="pointerEvents=1;shadow=0;dashed=0;html=1;strokeColor=none;fillColor=#434445;aspect=fixed;labelPosition=center;verticalLabelPosition=bottom;verticalAlign=top;align=center;outlineConnect=0;shape=mxgraph.vvd.virtual_machine;" vertex="1" parent="-_ASoIUO84pkn09L_Hc0-1">
          <mxGeometry x="116.5" y="200" width="50" height="50" as="geometry" />
        </mxCell>
        <mxCell id="gFqh7jiT6pV3XqUbgU2W-5" value="" style="pointerEvents=1;shadow=0;dashed=0;html=1;strokeColor=none;fillColor=#434445;aspect=fixed;labelPosition=center;verticalLabelPosition=bottom;verticalAlign=top;align=center;outlineConnect=0;shape=mxgraph.vvd.virtual_machine;" vertex="1" parent="-_ASoIUO84pkn09L_Hc0-1">
          <mxGeometry x="126.5" y="210" width="50" height="50" as="geometry" />
        </mxCell>
        <mxCell id="gFqh7jiT6pV3XqUbgU2W-6" value="" style="pointerEvents=1;shadow=0;dashed=0;html=1;strokeColor=none;fillColor=#434445;aspect=fixed;labelPosition=center;verticalLabelPosition=bottom;verticalAlign=top;align=center;outlineConnect=0;shape=mxgraph.vvd.virtual_machine;" vertex="1" parent="-_ASoIUO84pkn09L_Hc0-1">
          <mxGeometry x="136.5" y="220" width="50" height="50" as="geometry" />
        </mxCell>
        <mxCell id="gFqh7jiT6pV3XqUbgU2W-7" value="" style="pointerEvents=1;shadow=0;dashed=0;html=1;strokeColor=none;fillColor=#434445;aspect=fixed;labelPosition=center;verticalLabelPosition=bottom;verticalAlign=top;align=center;outlineConnect=0;shape=mxgraph.vvd.virtual_machine;" vertex="1" parent="-_ASoIUO84pkn09L_Hc0-1">
          <mxGeometry x="146.5" y="230" width="50" height="50" as="geometry" />
        </mxCell>
        <mxCell id="gFqh7jiT6pV3XqUbgU2W-8" value="VEEAM&lt;br&gt;x VMs (28 - 30) some big" style="rounded=1;whiteSpace=wrap;html=1;align=left;fillColor=#dae8fc;strokeColor=#6c8ebf;" vertex="1" parent="-_ASoIUO84pkn09L_Hc0-1">
          <mxGeometry x="306.5" y="190" width="163.5" height="60" as="geometry" />
        </mxCell>
        <mxCell id="gFqh7jiT6pV3XqUbgU2W-9" value="" style="shape=flexArrow;endArrow=classic;html=1;" edge="1" parent="-_ASoIUO84pkn09L_Hc0-1" source="gFqh7jiT6pV3XqUbgU2W-7" target="gFqh7jiT6pV3XqUbgU2W-8">
          <mxGeometry width="50" height="50" relative="1" as="geometry">
            <mxPoint x="530" y="390" as="sourcePoint" />
            <mxPoint x="580" y="340" as="targetPoint" />
          </mxGeometry>
        </mxCell>
        <mxCell id="gFqh7jiT6pV3XqUbgU2W-10" value="AWS STORAGE GW&lt;br&gt;VM APPLIANCE&amp;nbsp;" style="rounded=1;whiteSpace=wrap;html=1;align=left;" vertex="1" parent="-_ASoIUO84pkn09L_Hc0-1">
          <mxGeometry x="306.5" y="340" width="120" height="60" as="geometry" />
        </mxCell>
        <mxCell id="gFqh7jiT6pV3XqUbgU2W-11" value="VMDK" style="shape=cylinder3;whiteSpace=wrap;html=1;boundedLbl=1;backgroundOutline=1;size=15;" vertex="1" parent="-_ASoIUO84pkn09L_Hc0-1">
          <mxGeometry x="306.5" y="410" width="60" height="80" as="geometry" />
        </mxCell>
        <mxCell id="gFqh7jiT6pV3XqUbgU2W-12" value="" style="shape=flexArrow;endArrow=classic;html=1;exitX=0.25;exitY=1;exitDx=0;exitDy=0;" edge="1" parent="-_ASoIUO84pkn09L_Hc0-1" source="gFqh7jiT6pV3XqUbgU2W-8" target="gFqh7jiT6pV3XqUbgU2W-19">
          <mxGeometry width="50" height="50" relative="1" as="geometry">
            <mxPoint x="530" y="390" as="sourcePoint" />
            <mxPoint x="580" y="340" as="targetPoint" />
          </mxGeometry>
        </mxCell>
        <mxCell id="gFqh7jiT6pV3XqUbgU2W-13" value="Microsoft&amp;nbsp;&lt;br&gt;File Sharing&lt;br&gt;Target" style="text;html=1;strokeColor=none;fillColor=none;align=center;verticalAlign=middle;whiteSpace=wrap;rounded=0;" vertex="1" parent="-_ASoIUO84pkn09L_Hc0-1">
          <mxGeometry x="266.5" y="360" width="40" height="20" as="geometry" />
        </mxCell>
        <mxCell id="gFqh7jiT6pV3XqUbgU2W-15" value="VPC" style="points=[[0,0],[0.25,0],[0.5,0],[0.75,0],[1,0],[1,0.25],[1,0.5],[1,0.75],[1,1],[0.75,1],[0.5,1],[0.25,1],[0,1],[0,0.75],[0,0.5],[0,0.25]];outlineConnect=0;gradientColor=none;html=1;whiteSpace=wrap;fontSize=12;fontStyle=0;shape=mxgraph.aws4.group;grIcon=mxgraph.aws4.group_vpc;strokeColor=#248814;fillColor=none;verticalAlign=top;align=left;spacingLeft=30;fontColor=#AAB7B8;dashed=0;" vertex="1" parent="-_ASoIUO84pkn09L_Hc0-1">
          <mxGeometry x="820" y="190" width="280" height="320" as="geometry" />
        </mxCell>
        <mxCell id="gFqh7jiT6pV3XqUbgU2W-16" value="" style="outlineConnect=0;fontColor=#232F3E;gradientColor=none;fillColor=#277116;strokeColor=none;dashed=0;verticalLabelPosition=bottom;verticalAlign=top;align=center;html=1;fontSize=12;fontStyle=0;aspect=fixed;pointerEvents=1;shape=mxgraph.aws4.bucket;" vertex="1" parent="-_ASoIUO84pkn09L_Hc0-1">
          <mxGeometry x="960" y="280" width="75" height="78" as="geometry" />
        </mxCell>
        <mxCell id="gFqh7jiT6pV3XqUbgU2W-17" value="" style="shape=flexArrow;endArrow=classic;html=1;fillColor=#d5e8d4;strokeColor=#82b366;" edge="1" parent="-_ASoIUO84pkn09L_Hc0-1" source="gFqh7jiT6pV3XqUbgU2W-11" target="gFqh7jiT6pV3XqUbgU2W-16">
          <mxGeometry width="50" height="50" relative="1" as="geometry">
            <mxPoint x="610" y="360" as="sourcePoint" />
            <mxPoint x="660" y="310" as="targetPoint" />
          </mxGeometry>
        </mxCell>
        <mxCell id="gFqh7jiT6pV3XqUbgU2W-18" value="" style="shape=flexArrow;endArrow=classic;html=1;fillColor=#f8cecc;strokeColor=#b85450;endWidth=45;endSize=27.25;" edge="1" parent="-_ASoIUO84pkn09L_Hc0-1" source="gFqh7jiT6pV3XqUbgU2W-16" target="gFqh7jiT6pV3XqUbgU2W-10">
          <mxGeometry width="50" height="50" relative="1" as="geometry">
            <mxPoint x="580" y="360" as="sourcePoint" />
            <mxPoint x="630" y="310" as="targetPoint" />
          </mxGeometry>
        </mxCell>
        <mxCell id="gFqh7jiT6pV3XqUbgU2W-19" value="QNAP&lt;br&gt;LOCAL WORKING COPY&lt;br&gt;NL DISKS?" style="rounded=1;whiteSpace=wrap;html=1;fillColor=#dae8fc;strokeColor=#6c8ebf;" vertex="1" parent="-_ASoIUO84pkn09L_Hc0-1">
          <mxGeometry x="490" y="250" width="120" height="60" as="geometry" />
        </mxCell>
        <mxCell id="gFqh7jiT6pV3XqUbgU2W-20" value="" style="shape=flexArrow;endArrow=classic;html=1;exitX=0;exitY=0.75;exitDx=0;exitDy=0;fillColor=#e1d5e7;strokeColor=#9673a6;" edge="1" parent="-_ASoIUO84pkn09L_Hc0-1" source="gFqh7jiT6pV3XqUbgU2W-19" target="gFqh7jiT6pV3XqUbgU2W-10">
          <mxGeometry width="50" height="50" relative="1" as="geometry">
            <mxPoint x="580" y="360" as="sourcePoint" />
            <mxPoint x="630" y="310" as="targetPoint" />
          </mxGeometry>
        </mxCell>
        <mxCell id="gFqh7jiT6pV3XqUbgU2W-21" value="" style="shape=flexArrow;endArrow=classic;html=1;exitX=0.25;exitY=1;exitDx=0;exitDy=0;" edge="1" parent="-_ASoIUO84pkn09L_Hc0-1" target="gFqh7jiT6pV3XqUbgU2W-10">
          <mxGeometry width="50" height="50" relative="1" as="geometry">
            <mxPoint x="346.5" y="275" as="sourcePoint" />
            <mxPoint x="500" y="285.7845433255269" as="targetPoint" />
          </mxGeometry>
        </mxCell>
      </root>
    </mxGraphModel>
  </diagram>
  <diagram name="Copy of QNAP WORKING COPY" id="tlH8XqLaQRt-3Vg5BKt6">
    <mxGraphModel dx="1300" dy="579" grid="1" gridSize="10" guides="1" tooltips="1" connect="1" arrows="1" fold="1" page="1" pageScale="1" pageWidth="1169" pageHeight="827" math="0" shadow="0">
      <root>
        <mxCell id="RWFFq_zjEXjQHHEJAVSJ-0" />
        <mxCell id="RWFFq_zjEXjQHHEJAVSJ-1" parent="RWFFq_zjEXjQHHEJAVSJ-0" />
        <mxCell id="RWFFq_zjEXjQHHEJAVSJ-2" value="" style="rounded=1;whiteSpace=wrap;html=1;align=left;" vertex="1" parent="RWFFq_zjEXjQHHEJAVSJ-1">
          <mxGeometry x="60" y="180" width="570" height="400" as="geometry" />
        </mxCell>
        <mxCell id="RWFFq_zjEXjQHHEJAVSJ-3" value="UHI AWS Review" style="text;html=1;resizable=0;points=[];autosize=1;align=left;verticalAlign=top;spacingTop=-4;fontSize=30;fontStyle=1" vertex="1" parent="RWFFq_zjEXjQHHEJAVSJ-1">
          <mxGeometry x="56.5" y="64.5" width="250" height="40" as="geometry" />
        </mxCell>
        <mxCell id="RWFFq_zjEXjQHHEJAVSJ-4" value="DECOUPLE WITH STORAGE BETWEEN VEEAM AND STORAGE GATEWAY" style="text;html=1;resizable=0;points=[];autosize=1;align=left;verticalAlign=top;spacingTop=-4;fontSize=16;" vertex="1" parent="RWFFq_zjEXjQHHEJAVSJ-1">
          <mxGeometry x="56.5" y="114.5" width="580" height="20" as="geometry" />
        </mxCell>
        <mxCell id="RWFFq_zjEXjQHHEJAVSJ-5" value="" style="line;strokeWidth=2;html=1;fontSize=14;" vertex="1" parent="RWFFq_zjEXjQHHEJAVSJ-1">
          <mxGeometry x="52.5" y="139.5" width="1060" height="10" as="geometry" />
        </mxCell>
        <mxCell id="RWFFq_zjEXjQHHEJAVSJ-6" value="" style="pointerEvents=1;shadow=0;dashed=0;html=1;strokeColor=none;fillColor=#434445;aspect=fixed;labelPosition=center;verticalLabelPosition=bottom;verticalAlign=top;align=center;outlineConnect=0;shape=mxgraph.vvd.virtual_machine;" vertex="1" parent="RWFFq_zjEXjQHHEJAVSJ-1">
          <mxGeometry x="106.5" y="190" width="50" height="50" as="geometry" />
        </mxCell>
        <mxCell id="RWFFq_zjEXjQHHEJAVSJ-7" value="" style="pointerEvents=1;shadow=0;dashed=0;html=1;strokeColor=none;fillColor=#434445;aspect=fixed;labelPosition=center;verticalLabelPosition=bottom;verticalAlign=top;align=center;outlineConnect=0;shape=mxgraph.vvd.virtual_machine;" vertex="1" parent="RWFFq_zjEXjQHHEJAVSJ-1">
          <mxGeometry x="116.5" y="200" width="50" height="50" as="geometry" />
        </mxCell>
        <mxCell id="RWFFq_zjEXjQHHEJAVSJ-8" value="" style="pointerEvents=1;shadow=0;dashed=0;html=1;strokeColor=none;fillColor=#434445;aspect=fixed;labelPosition=center;verticalLabelPosition=bottom;verticalAlign=top;align=center;outlineConnect=0;shape=mxgraph.vvd.virtual_machine;" vertex="1" parent="RWFFq_zjEXjQHHEJAVSJ-1">
          <mxGeometry x="126.5" y="210" width="50" height="50" as="geometry" />
        </mxCell>
        <mxCell id="RWFFq_zjEXjQHHEJAVSJ-9" value="" style="pointerEvents=1;shadow=0;dashed=0;html=1;strokeColor=none;fillColor=#434445;aspect=fixed;labelPosition=center;verticalLabelPosition=bottom;verticalAlign=top;align=center;outlineConnect=0;shape=mxgraph.vvd.virtual_machine;" vertex="1" parent="RWFFq_zjEXjQHHEJAVSJ-1">
          <mxGeometry x="136.5" y="220" width="50" height="50" as="geometry" />
        </mxCell>
        <mxCell id="RWFFq_zjEXjQHHEJAVSJ-10" value="" style="pointerEvents=1;shadow=0;dashed=0;html=1;strokeColor=none;fillColor=#434445;aspect=fixed;labelPosition=center;verticalLabelPosition=bottom;verticalAlign=top;align=center;outlineConnect=0;shape=mxgraph.vvd.virtual_machine;" vertex="1" parent="RWFFq_zjEXjQHHEJAVSJ-1">
          <mxGeometry x="146.5" y="230" width="50" height="50" as="geometry" />
        </mxCell>
        <mxCell id="RWFFq_zjEXjQHHEJAVSJ-11" value="VEEAM&lt;br&gt;x VMs (28 - 30) some big" style="rounded=1;whiteSpace=wrap;html=1;align=left;fillColor=#dae8fc;strokeColor=#6c8ebf;" vertex="1" parent="RWFFq_zjEXjQHHEJAVSJ-1">
          <mxGeometry x="306.5" y="190" width="163.5" height="60" as="geometry" />
        </mxCell>
        <mxCell id="RWFFq_zjEXjQHHEJAVSJ-12" value="" style="shape=flexArrow;endArrow=classic;html=1;" edge="1" parent="RWFFq_zjEXjQHHEJAVSJ-1" source="RWFFq_zjEXjQHHEJAVSJ-10" target="RWFFq_zjEXjQHHEJAVSJ-11">
          <mxGeometry width="50" height="50" relative="1" as="geometry">
            <mxPoint x="530" y="390" as="sourcePoint" />
            <mxPoint x="580" y="340" as="targetPoint" />
          </mxGeometry>
        </mxCell>
        <mxCell id="RWFFq_zjEXjQHHEJAVSJ-13" value="WINDOWS COPY VM&lt;br&gt;&lt;br&gt;" style="rounded=1;whiteSpace=wrap;html=1;align=left;" vertex="1" parent="RWFFq_zjEXjQHHEJAVSJ-1">
          <mxGeometry x="400" y="430" width="120" height="60" as="geometry" />
        </mxCell>
        <mxCell id="RWFFq_zjEXjQHHEJAVSJ-15" value="" style="shape=flexArrow;endArrow=classic;html=1;exitX=0.25;exitY=1;exitDx=0;exitDy=0;" edge="1" parent="RWFFq_zjEXjQHHEJAVSJ-1" source="RWFFq_zjEXjQHHEJAVSJ-11" target="RWFFq_zjEXjQHHEJAVSJ-21">
          <mxGeometry width="50" height="50" relative="1" as="geometry">
            <mxPoint x="530" y="390" as="sourcePoint" />
            <mxPoint x="580" y="340" as="targetPoint" />
          </mxGeometry>
        </mxCell>
        <mxCell id="RWFFq_zjEXjQHHEJAVSJ-24" value="Text" style="edgeLabel;html=1;align=center;verticalAlign=middle;resizable=0;points=[];" vertex="1" connectable="0" parent="RWFFq_zjEXjQHHEJAVSJ-15">
          <mxGeometry x="-0.5427" y="-1" relative="1" as="geometry">
            <mxPoint as="offset" />
          </mxGeometry>
        </mxCell>
        <mxCell id="RWFFq_zjEXjQHHEJAVSJ-17" value="VPC" style="points=[[0,0],[0.25,0],[0.5,0],[0.75,0],[1,0],[1,0.25],[1,0.5],[1,0.75],[1,1],[0.75,1],[0.5,1],[0.25,1],[0,1],[0,0.75],[0,0.5],[0,0.25]];outlineConnect=0;gradientColor=none;html=1;whiteSpace=wrap;fontSize=12;fontStyle=0;shape=mxgraph.aws4.group;grIcon=mxgraph.aws4.group_vpc;strokeColor=#248814;fillColor=none;verticalAlign=top;align=left;spacingLeft=30;fontColor=#AAB7B8;dashed=0;" vertex="1" parent="RWFFq_zjEXjQHHEJAVSJ-1">
          <mxGeometry x="820" y="190" width="280" height="320" as="geometry" />
        </mxCell>
        <mxCell id="RWFFq_zjEXjQHHEJAVSJ-18" value="" style="outlineConnect=0;fontColor=#232F3E;gradientColor=none;fillColor=#277116;strokeColor=none;dashed=0;verticalLabelPosition=bottom;verticalAlign=top;align=center;html=1;fontSize=12;fontStyle=0;aspect=fixed;pointerEvents=1;shape=mxgraph.aws4.bucket;" vertex="1" parent="RWFFq_zjEXjQHHEJAVSJ-1">
          <mxGeometry x="960" y="280" width="75" height="78" as="geometry" />
        </mxCell>
        <mxCell id="RWFFq_zjEXjQHHEJAVSJ-21" value="QNAP CIFS TARGET&lt;br&gt;66TB available" style="rounded=1;whiteSpace=wrap;html=1;fillColor=#dae8fc;strokeColor=#6c8ebf;" vertex="1" parent="RWFFq_zjEXjQHHEJAVSJ-1">
          <mxGeometry x="450" y="289" width="120" height="60" as="geometry" />
        </mxCell>
        <mxCell id="RWFFq_zjEXjQHHEJAVSJ-22" value="" style="shape=flexArrow;endArrow=classic;html=1;fillColor=#e1d5e7;strokeColor=#9673a6;" edge="1" parent="RWFFq_zjEXjQHHEJAVSJ-1" source="RWFFq_zjEXjQHHEJAVSJ-21" target="RWFFq_zjEXjQHHEJAVSJ-13">
          <mxGeometry width="50" height="50" relative="1" as="geometry">
            <mxPoint x="580" y="360" as="sourcePoint" />
            <mxPoint x="630" y="310" as="targetPoint" />
          </mxGeometry>
        </mxCell>
      </root>
    </mxGraphModel>
  </diagram>
  <diagram name="LARGE LOCAL" id="R0q3C46FL9Q9QsEFeaIM">
    <mxGraphModel dx="1214" dy="493" grid="1" gridSize="10" guides="1" tooltips="1" connect="1" arrows="1" fold="1" page="1" pageScale="1" pageWidth="1169" pageHeight="827" math="0" shadow="0">
      <root>
        <mxCell id="RW-3u5JUz2MgHWzMNND7-0" />
        <mxCell id="RW-3u5JUz2MgHWzMNND7-1" parent="RW-3u5JUz2MgHWzMNND7-0" />
        <mxCell id="RW-3u5JUz2MgHWzMNND7-2" value="" style="rounded=1;whiteSpace=wrap;html=1;align=left;" vertex="1" parent="RW-3u5JUz2MgHWzMNND7-1">
          <mxGeometry x="60" y="180" width="570" height="400" as="geometry" />
        </mxCell>
        <mxCell id="RW-3u5JUz2MgHWzMNND7-3" value="UHI AWS Review" style="text;html=1;resizable=0;points=[];autosize=1;align=left;verticalAlign=top;spacingTop=-4;fontSize=30;fontStyle=1" vertex="1" parent="RW-3u5JUz2MgHWzMNND7-1">
          <mxGeometry x="56.5" y="64.5" width="250" height="40" as="geometry" />
        </mxCell>
        <mxCell id="RW-3u5JUz2MgHWzMNND7-4" value="Subtitle text&lt;br style=&quot;font-size: 16px&quot;&gt;" style="text;html=1;resizable=0;points=[];autosize=1;align=left;verticalAlign=top;spacingTop=-4;fontSize=16;" vertex="1" parent="RW-3u5JUz2MgHWzMNND7-1">
          <mxGeometry x="56.5" y="114.5" width="100" height="20" as="geometry" />
        </mxCell>
        <mxCell id="RW-3u5JUz2MgHWzMNND7-5" value="" style="line;strokeWidth=2;html=1;fontSize=14;" vertex="1" parent="RW-3u5JUz2MgHWzMNND7-1">
          <mxGeometry x="52.5" y="139.5" width="1060" height="10" as="geometry" />
        </mxCell>
        <mxCell id="RW-3u5JUz2MgHWzMNND7-6" value="" style="pointerEvents=1;shadow=0;dashed=0;html=1;strokeColor=none;fillColor=#434445;aspect=fixed;labelPosition=center;verticalLabelPosition=bottom;verticalAlign=top;align=center;outlineConnect=0;shape=mxgraph.vvd.virtual_machine;" vertex="1" parent="RW-3u5JUz2MgHWzMNND7-1">
          <mxGeometry x="106.5" y="190" width="50" height="50" as="geometry" />
        </mxCell>
        <mxCell id="RW-3u5JUz2MgHWzMNND7-7" value="" style="pointerEvents=1;shadow=0;dashed=0;html=1;strokeColor=none;fillColor=#434445;aspect=fixed;labelPosition=center;verticalLabelPosition=bottom;verticalAlign=top;align=center;outlineConnect=0;shape=mxgraph.vvd.virtual_machine;" vertex="1" parent="RW-3u5JUz2MgHWzMNND7-1">
          <mxGeometry x="116.5" y="200" width="50" height="50" as="geometry" />
        </mxCell>
        <mxCell id="RW-3u5JUz2MgHWzMNND7-8" value="" style="pointerEvents=1;shadow=0;dashed=0;html=1;strokeColor=none;fillColor=#434445;aspect=fixed;labelPosition=center;verticalLabelPosition=bottom;verticalAlign=top;align=center;outlineConnect=0;shape=mxgraph.vvd.virtual_machine;" vertex="1" parent="RW-3u5JUz2MgHWzMNND7-1">
          <mxGeometry x="126.5" y="210" width="50" height="50" as="geometry" />
        </mxCell>
        <mxCell id="RW-3u5JUz2MgHWzMNND7-9" value="" style="pointerEvents=1;shadow=0;dashed=0;html=1;strokeColor=none;fillColor=#434445;aspect=fixed;labelPosition=center;verticalLabelPosition=bottom;verticalAlign=top;align=center;outlineConnect=0;shape=mxgraph.vvd.virtual_machine;" vertex="1" parent="RW-3u5JUz2MgHWzMNND7-1">
          <mxGeometry x="136.5" y="220" width="50" height="50" as="geometry" />
        </mxCell>
        <mxCell id="RW-3u5JUz2MgHWzMNND7-10" value="" style="pointerEvents=1;shadow=0;dashed=0;html=1;strokeColor=none;fillColor=#434445;aspect=fixed;labelPosition=center;verticalLabelPosition=bottom;verticalAlign=top;align=center;outlineConnect=0;shape=mxgraph.vvd.virtual_machine;" vertex="1" parent="RW-3u5JUz2MgHWzMNND7-1">
          <mxGeometry x="146.5" y="230" width="50" height="50" as="geometry" />
        </mxCell>
        <mxCell id="RW-3u5JUz2MgHWzMNND7-11" value="VEEAM&lt;br&gt;x VMs (28 - 30) some big" style="rounded=1;whiteSpace=wrap;html=1;align=left;fillColor=#dae8fc;strokeColor=#6c8ebf;" vertex="1" parent="RW-3u5JUz2MgHWzMNND7-1">
          <mxGeometry x="306.5" y="190" width="163.5" height="60" as="geometry" />
        </mxCell>
        <mxCell id="RW-3u5JUz2MgHWzMNND7-12" value="" style="shape=flexArrow;endArrow=classic;html=1;" edge="1" parent="RW-3u5JUz2MgHWzMNND7-1" source="RW-3u5JUz2MgHWzMNND7-10" target="RW-3u5JUz2MgHWzMNND7-11">
          <mxGeometry width="50" height="50" relative="1" as="geometry">
            <mxPoint x="530" y="390" as="sourcePoint" />
            <mxPoint x="580" y="340" as="targetPoint" />
          </mxGeometry>
        </mxCell>
        <mxCell id="RW-3u5JUz2MgHWzMNND7-13" value="AWS STORAGE GW&lt;br&gt;VM APPLIANCE&amp;nbsp;" style="rounded=1;whiteSpace=wrap;html=1;align=left;" vertex="1" parent="RW-3u5JUz2MgHWzMNND7-1">
          <mxGeometry x="306.5" y="310" width="123.5" height="60" as="geometry" />
        </mxCell>
        <mxCell id="RW-3u5JUz2MgHWzMNND7-14" value="VMDK&lt;br&gt;INCREASE TO TB SCALE&lt;br&gt;NOT ENOUGH FAST CLASS CURRENTLY" style="shape=cylinder3;whiteSpace=wrap;html=1;boundedLbl=1;backgroundOutline=1;size=15;" vertex="1" parent="RW-3u5JUz2MgHWzMNND7-1">
          <mxGeometry x="280" y="420" width="166.5" height="130" as="geometry" />
        </mxCell>
        <mxCell id="RW-3u5JUz2MgHWzMNND7-16" value="Microsoft&amp;nbsp;&lt;br&gt;File Sharing&lt;br&gt;Target" style="text;html=1;strokeColor=none;fillColor=none;align=center;verticalAlign=middle;whiteSpace=wrap;rounded=0;" vertex="1" parent="RW-3u5JUz2MgHWzMNND7-1">
          <mxGeometry x="266.5" y="360" width="40" height="20" as="geometry" />
        </mxCell>
        <mxCell id="RW-3u5JUz2MgHWzMNND7-17" value="VPC" style="points=[[0,0],[0.25,0],[0.5,0],[0.75,0],[1,0],[1,0.25],[1,0.5],[1,0.75],[1,1],[0.75,1],[0.5,1],[0.25,1],[0,1],[0,0.75],[0,0.5],[0,0.25]];outlineConnect=0;gradientColor=none;html=1;whiteSpace=wrap;fontSize=12;fontStyle=0;shape=mxgraph.aws4.group;grIcon=mxgraph.aws4.group_vpc;strokeColor=#248814;fillColor=none;verticalAlign=top;align=left;spacingLeft=30;fontColor=#AAB7B8;dashed=0;" vertex="1" parent="RW-3u5JUz2MgHWzMNND7-1">
          <mxGeometry x="820" y="190" width="280" height="320" as="geometry" />
        </mxCell>
        <mxCell id="RW-3u5JUz2MgHWzMNND7-18" value="" style="outlineConnect=0;fontColor=#232F3E;gradientColor=none;fillColor=#277116;strokeColor=none;dashed=0;verticalLabelPosition=bottom;verticalAlign=top;align=center;html=1;fontSize=12;fontStyle=0;aspect=fixed;pointerEvents=1;shape=mxgraph.aws4.bucket;" vertex="1" parent="RW-3u5JUz2MgHWzMNND7-1">
          <mxGeometry x="960" y="280" width="75" height="78" as="geometry" />
        </mxCell>
        <mxCell id="RW-3u5JUz2MgHWzMNND7-19" value="" style="shape=flexArrow;endArrow=classic;html=1;fillColor=#d5e8d4;strokeColor=#82b366;" edge="1" parent="RW-3u5JUz2MgHWzMNND7-1" source="RW-3u5JUz2MgHWzMNND7-14" target="RW-3u5JUz2MgHWzMNND7-18">
          <mxGeometry width="50" height="50" relative="1" as="geometry">
            <mxPoint x="610" y="360" as="sourcePoint" />
            <mxPoint x="660" y="310" as="targetPoint" />
          </mxGeometry>
        </mxCell>
        <mxCell id="RW-3u5JUz2MgHWzMNND7-23" value="" style="shape=flexArrow;endArrow=classic;html=1;exitX=0.25;exitY=1;exitDx=0;exitDy=0;" edge="1" parent="RW-3u5JUz2MgHWzMNND7-1" target="RW-3u5JUz2MgHWzMNND7-13" source="RW-3u5JUz2MgHWzMNND7-11">
          <mxGeometry width="50" height="50" relative="1" as="geometry">
            <mxPoint x="346.5" y="275" as="sourcePoint" />
            <mxPoint x="500" y="285.7845433255269" as="targetPoint" />
          </mxGeometry>
        </mxCell>
        <mxCell id="wQLED778K4Ff3pUmFSML-0" value="NO 3PAR PHYSICAL CAPACITY&lt;br&gt;&lt;br&gt;WOULD REQUIRE ANOTHER SHELF&amp;nbsp;&lt;br&gt;&lt;br&gt;AGE OF EQUIPMENT COULD BE COST PROHIBITIVE" style="text;html=1;strokeColor=none;fillColor=none;align=center;verticalAlign=middle;whiteSpace=wrap;rounded=0;" vertex="1" parent="RW-3u5JUz2MgHWzMNND7-1">
          <mxGeometry x="141.5" y="620" width="308.5" height="20" as="geometry" />
        </mxCell>
        <mxCell id="wtHEyjy8LVQ15Rh5qazC-0" value="DEDUPE ON 3PAR?&lt;br&gt;7.5K/10K/15K/SSD" style="text;html=1;strokeColor=none;fillColor=none;align=center;verticalAlign=middle;whiteSpace=wrap;rounded=0;" vertex="1" parent="RW-3u5JUz2MgHWzMNND7-1">
          <mxGeometry x="620" y="610" width="230" height="20" as="geometry" />
        </mxCell>
        <mxCell id="wtHEyjy8LVQ15Rh5qazC-1" value="WORKLOAD TIERING&lt;br&gt;PRIORITY&lt;br&gt;" style="text;html=1;strokeColor=none;fillColor=none;align=center;verticalAlign=middle;whiteSpace=wrap;rounded=0;" vertex="1" parent="RW-3u5JUz2MgHWzMNND7-1">
          <mxGeometry x="977.5" y="600" width="40" height="20" as="geometry" />
        </mxCell>
      </root>
    </mxGraphModel>
  </diagram>
  <diagram name="Copy of LARGE LOCAL" id="E8gd_LBNBLCLVxGK9NQ2">
    <mxGraphModel dx="850" dy="345" grid="1" gridSize="10" guides="1" tooltips="1" connect="1" arrows="1" fold="1" page="1" pageScale="1" pageWidth="1169" pageHeight="827" math="0" shadow="0">
      <root>
        <mxCell id="KxH72arVoeEZTpV5QaYL-0" />
        <mxCell id="KxH72arVoeEZTpV5QaYL-1" parent="KxH72arVoeEZTpV5QaYL-0" />
        <mxCell id="KxH72arVoeEZTpV5QaYL-2" value="" style="rounded=1;whiteSpace=wrap;html=1;align=left;" vertex="1" parent="KxH72arVoeEZTpV5QaYL-1">
          <mxGeometry x="60" y="180" width="570" height="400" as="geometry" />
        </mxCell>
        <mxCell id="KxH72arVoeEZTpV5QaYL-3" value="UHI AWS Review" style="text;html=1;resizable=0;points=[];autosize=1;align=left;verticalAlign=top;spacingTop=-4;fontSize=30;fontStyle=1" vertex="1" parent="KxH72arVoeEZTpV5QaYL-1">
          <mxGeometry x="56.5" y="64.5" width="250" height="40" as="geometry" />
        </mxCell>
        <mxCell id="KxH72arVoeEZTpV5QaYL-4" value="Subtitle text&lt;br style=&quot;font-size: 16px&quot;&gt;" style="text;html=1;resizable=0;points=[];autosize=1;align=left;verticalAlign=top;spacingTop=-4;fontSize=16;" vertex="1" parent="KxH72arVoeEZTpV5QaYL-1">
          <mxGeometry x="56.5" y="114.5" width="100" height="20" as="geometry" />
        </mxCell>
        <mxCell id="KxH72arVoeEZTpV5QaYL-5" value="" style="line;strokeWidth=2;html=1;fontSize=14;" vertex="1" parent="KxH72arVoeEZTpV5QaYL-1">
          <mxGeometry x="52.5" y="139.5" width="1060" height="10" as="geometry" />
        </mxCell>
        <mxCell id="KxH72arVoeEZTpV5QaYL-6" value="" style="pointerEvents=1;shadow=0;dashed=0;html=1;strokeColor=none;fillColor=#434445;aspect=fixed;labelPosition=center;verticalLabelPosition=bottom;verticalAlign=top;align=center;outlineConnect=0;shape=mxgraph.vvd.virtual_machine;" vertex="1" parent="KxH72arVoeEZTpV5QaYL-1">
          <mxGeometry x="106.5" y="190" width="50" height="50" as="geometry" />
        </mxCell>
        <mxCell id="KxH72arVoeEZTpV5QaYL-7" value="" style="pointerEvents=1;shadow=0;dashed=0;html=1;strokeColor=none;fillColor=#434445;aspect=fixed;labelPosition=center;verticalLabelPosition=bottom;verticalAlign=top;align=center;outlineConnect=0;shape=mxgraph.vvd.virtual_machine;" vertex="1" parent="KxH72arVoeEZTpV5QaYL-1">
          <mxGeometry x="116.5" y="200" width="50" height="50" as="geometry" />
        </mxCell>
        <mxCell id="KxH72arVoeEZTpV5QaYL-8" value="" style="pointerEvents=1;shadow=0;dashed=0;html=1;strokeColor=none;fillColor=#434445;aspect=fixed;labelPosition=center;verticalLabelPosition=bottom;verticalAlign=top;align=center;outlineConnect=0;shape=mxgraph.vvd.virtual_machine;" vertex="1" parent="KxH72arVoeEZTpV5QaYL-1">
          <mxGeometry x="126.5" y="210" width="50" height="50" as="geometry" />
        </mxCell>
        <mxCell id="KxH72arVoeEZTpV5QaYL-9" value="" style="pointerEvents=1;shadow=0;dashed=0;html=1;strokeColor=none;fillColor=#434445;aspect=fixed;labelPosition=center;verticalLabelPosition=bottom;verticalAlign=top;align=center;outlineConnect=0;shape=mxgraph.vvd.virtual_machine;" vertex="1" parent="KxH72arVoeEZTpV5QaYL-1">
          <mxGeometry x="136.5" y="220" width="50" height="50" as="geometry" />
        </mxCell>
        <mxCell id="KxH72arVoeEZTpV5QaYL-10" value="" style="pointerEvents=1;shadow=0;dashed=0;html=1;strokeColor=none;fillColor=#434445;aspect=fixed;labelPosition=center;verticalLabelPosition=bottom;verticalAlign=top;align=center;outlineConnect=0;shape=mxgraph.vvd.virtual_machine;" vertex="1" parent="KxH72arVoeEZTpV5QaYL-1">
          <mxGeometry x="146.5" y="230" width="50" height="50" as="geometry" />
        </mxCell>
        <mxCell id="KxH72arVoeEZTpV5QaYL-11" value="VEEAM&lt;br&gt;x VMs (28 - 30) some big" style="rounded=1;whiteSpace=wrap;html=1;align=left;fillColor=#dae8fc;strokeColor=#6c8ebf;" vertex="1" parent="KxH72arVoeEZTpV5QaYL-1">
          <mxGeometry x="306.5" y="190" width="163.5" height="60" as="geometry" />
        </mxCell>
        <mxCell id="KxH72arVoeEZTpV5QaYL-12" value="" style="shape=flexArrow;endArrow=classic;html=1;" edge="1" parent="KxH72arVoeEZTpV5QaYL-1" source="KxH72arVoeEZTpV5QaYL-10" target="KxH72arVoeEZTpV5QaYL-11">
          <mxGeometry width="50" height="50" relative="1" as="geometry">
            <mxPoint x="530" y="390" as="sourcePoint" />
            <mxPoint x="580" y="340" as="targetPoint" />
          </mxGeometry>
        </mxCell>
        <mxCell id="KxH72arVoeEZTpV5QaYL-13" value="AWS STORAGE GW&lt;br&gt;VM APPLIANCE&amp;nbsp;" style="rounded=1;whiteSpace=wrap;html=1;align=left;" vertex="1" parent="KxH72arVoeEZTpV5QaYL-1">
          <mxGeometry x="306.5" y="310" width="123.5" height="60" as="geometry" />
        </mxCell>
        <mxCell id="KxH72arVoeEZTpV5QaYL-14" value="VMDK ON FAST" style="shape=cylinder3;whiteSpace=wrap;html=1;boundedLbl=1;backgroundOutline=1;size=15;" vertex="1" parent="KxH72arVoeEZTpV5QaYL-1">
          <mxGeometry x="280" y="420" width="166.5" height="130" as="geometry" />
        </mxCell>
        <mxCell id="KxH72arVoeEZTpV5QaYL-15" value="Microsoft&amp;nbsp;&lt;br&gt;File Sharing&lt;br&gt;Target" style="text;html=1;strokeColor=none;fillColor=none;align=center;verticalAlign=middle;whiteSpace=wrap;rounded=0;" vertex="1" parent="KxH72arVoeEZTpV5QaYL-1">
          <mxGeometry x="266.5" y="360" width="40" height="20" as="geometry" />
        </mxCell>
        <mxCell id="KxH72arVoeEZTpV5QaYL-16" value="VPC" style="points=[[0,0],[0.25,0],[0.5,0],[0.75,0],[1,0],[1,0.25],[1,0.5],[1,0.75],[1,1],[0.75,1],[0.5,1],[0.25,1],[0,1],[0,0.75],[0,0.5],[0,0.25]];outlineConnect=0;gradientColor=none;html=1;whiteSpace=wrap;fontSize=12;fontStyle=0;shape=mxgraph.aws4.group;grIcon=mxgraph.aws4.group_vpc;strokeColor=#248814;fillColor=none;verticalAlign=top;align=left;spacingLeft=30;fontColor=#AAB7B8;dashed=0;" vertex="1" parent="KxH72arVoeEZTpV5QaYL-1">
          <mxGeometry x="820" y="190" width="280" height="320" as="geometry" />
        </mxCell>
        <mxCell id="KxH72arVoeEZTpV5QaYL-17" value="" style="outlineConnect=0;fontColor=#232F3E;gradientColor=none;fillColor=#277116;strokeColor=none;dashed=0;verticalLabelPosition=bottom;verticalAlign=top;align=center;html=1;fontSize=12;fontStyle=0;aspect=fixed;pointerEvents=1;shape=mxgraph.aws4.bucket;" vertex="1" parent="KxH72arVoeEZTpV5QaYL-1">
          <mxGeometry x="960" y="280" width="75" height="78" as="geometry" />
        </mxCell>
        <mxCell id="KxH72arVoeEZTpV5QaYL-18" value="" style="shape=flexArrow;endArrow=classic;html=1;fillColor=#d5e8d4;strokeColor=#82b366;" edge="1" parent="KxH72arVoeEZTpV5QaYL-1" source="KxH72arVoeEZTpV5QaYL-14" target="KxH72arVoeEZTpV5QaYL-17">
          <mxGeometry width="50" height="50" relative="1" as="geometry">
            <mxPoint x="610" y="360" as="sourcePoint" />
            <mxPoint x="660" y="310" as="targetPoint" />
          </mxGeometry>
        </mxCell>
        <mxCell id="KxH72arVoeEZTpV5QaYL-19" value="" style="shape=flexArrow;endArrow=classic;html=1;exitX=0.25;exitY=1;exitDx=0;exitDy=0;" edge="1" parent="KxH72arVoeEZTpV5QaYL-1" source="KxH72arVoeEZTpV5QaYL-11" target="KxH72arVoeEZTpV5QaYL-13">
          <mxGeometry width="50" height="50" relative="1" as="geometry">
            <mxPoint x="346.5" y="275" as="sourcePoint" />
            <mxPoint x="500" y="285.7845433255269" as="targetPoint" />
          </mxGeometry>
        </mxCell>
        <mxCell id="KxH72arVoeEZTpV5QaYL-20" value="NO 3PAR PHYSICAL CAPACITY&lt;br&gt;&lt;br&gt;WOULD REQUIRE ANOTHER SHELF&amp;nbsp;&lt;br&gt;&lt;br&gt;AGE OF EQUIPMENT COULD BE COST PROHIBITIVE" style="text;html=1;strokeColor=none;fillColor=none;align=center;verticalAlign=middle;whiteSpace=wrap;rounded=0;" vertex="1" parent="KxH72arVoeEZTpV5QaYL-1">
          <mxGeometry x="141.5" y="620" width="308.5" height="20" as="geometry" />
        </mxCell>
        <mxCell id="KxH72arVoeEZTpV5QaYL-21" value="DEDUPE ON 3PAR?&lt;br&gt;7.5K/10K/15K/SSD" style="text;html=1;strokeColor=none;fillColor=none;align=center;verticalAlign=middle;whiteSpace=wrap;rounded=0;" vertex="1" parent="KxH72arVoeEZTpV5QaYL-1">
          <mxGeometry x="620" y="610" width="230" height="20" as="geometry" />
        </mxCell>
        <mxCell id="KxH72arVoeEZTpV5QaYL-22" value="WORKLOAD TIERING&lt;br&gt;PRIORITY&lt;br&gt;" style="text;html=1;strokeColor=none;fillColor=none;align=center;verticalAlign=middle;whiteSpace=wrap;rounded=0;" vertex="1" parent="KxH72arVoeEZTpV5QaYL-1">
          <mxGeometry x="977.5" y="600" width="40" height="20" as="geometry" />
        </mxCell>
        <mxCell id="KxH72arVoeEZTpV5QaYL-23" value="vmdk ON SLOW" style="shape=cylinder3;whiteSpace=wrap;html=1;boundedLbl=1;backgroundOutline=1;size=15;" vertex="1" parent="KxH72arVoeEZTpV5QaYL-1">
          <mxGeometry x="88.25" y="420" width="166.5" height="130" as="geometry" />
        </mxCell>
        <mxCell id="KxH72arVoeEZTpV5QaYL-24" value="ABILITY TO PERFORM RECOVERY OPERATIONS - FREQUENT AND INFREQENT OPERATIONS" style="text;html=1;strokeColor=none;fillColor=none;align=center;verticalAlign=middle;whiteSpace=wrap;rounded=0;" vertex="1" parent="KxH72arVoeEZTpV5QaYL-1">
          <mxGeometry x="600" y="670" width="40" height="20" as="geometry" />
        </mxCell>
        <mxCell id="KxH72arVoeEZTpV5QaYL-25" value="SECOPS CONSIDERATIONS&lt;br&gt;RANSOMWARE&lt;br&gt;" style="text;html=1;strokeColor=none;fillColor=none;align=center;verticalAlign=middle;whiteSpace=wrap;rounded=0;" vertex="1" parent="KxH72arVoeEZTpV5QaYL-1">
          <mxGeometry x="850" y="670" width="40" height="20" as="geometry" />
        </mxCell>
      </root>
    </mxGraphModel>
  </diagram>
  <diagram name="Copy of Copy of LARGE LOCAL" id="vDBAd6dv8eohwMf01fA1">
    <mxGraphModel dx="1044" dy="465" grid="1" gridSize="10" guides="1" tooltips="1" connect="1" arrows="1" fold="1" page="1" pageScale="1" pageWidth="1169" pageHeight="827" math="0" shadow="0">
      <root>
        <mxCell id="0rAi-vja2p-2X7H4j2kv-0" />
        <mxCell id="0rAi-vja2p-2X7H4j2kv-1" parent="0rAi-vja2p-2X7H4j2kv-0" />
        <mxCell id="0rAi-vja2p-2X7H4j2kv-2" value="" style="rounded=1;whiteSpace=wrap;html=1;align=left;" vertex="1" parent="0rAi-vja2p-2X7H4j2kv-1">
          <mxGeometry x="60" y="180" width="570" height="400" as="geometry" />
        </mxCell>
        <mxCell id="0rAi-vja2p-2X7H4j2kv-3" value="UHI AWS Review" style="text;html=1;resizable=0;points=[];autosize=1;align=left;verticalAlign=top;spacingTop=-4;fontSize=30;fontStyle=1" vertex="1" parent="0rAi-vja2p-2X7H4j2kv-1">
          <mxGeometry x="56.5" y="64.5" width="250" height="40" as="geometry" />
        </mxCell>
        <mxCell id="0rAi-vja2p-2X7H4j2kv-4" value="Subtitle text&lt;br style=&quot;font-size: 16px&quot;&gt;" style="text;html=1;resizable=0;points=[];autosize=1;align=left;verticalAlign=top;spacingTop=-4;fontSize=16;" vertex="1" parent="0rAi-vja2p-2X7H4j2kv-1">
          <mxGeometry x="56.5" y="114.5" width="100" height="20" as="geometry" />
        </mxCell>
        <mxCell id="0rAi-vja2p-2X7H4j2kv-5" value="" style="line;strokeWidth=2;html=1;fontSize=14;" vertex="1" parent="0rAi-vja2p-2X7H4j2kv-1">
          <mxGeometry x="52.5" y="139.5" width="1060" height="10" as="geometry" />
        </mxCell>
        <mxCell id="0rAi-vja2p-2X7H4j2kv-6" value="" style="pointerEvents=1;shadow=0;dashed=0;html=1;strokeColor=none;fillColor=#434445;aspect=fixed;labelPosition=center;verticalLabelPosition=bottom;verticalAlign=top;align=center;outlineConnect=0;shape=mxgraph.vvd.virtual_machine;" vertex="1" parent="0rAi-vja2p-2X7H4j2kv-1">
          <mxGeometry x="106.5" y="190" width="50" height="50" as="geometry" />
        </mxCell>
        <mxCell id="0rAi-vja2p-2X7H4j2kv-7" value="" style="pointerEvents=1;shadow=0;dashed=0;html=1;strokeColor=none;fillColor=#434445;aspect=fixed;labelPosition=center;verticalLabelPosition=bottom;verticalAlign=top;align=center;outlineConnect=0;shape=mxgraph.vvd.virtual_machine;" vertex="1" parent="0rAi-vja2p-2X7H4j2kv-1">
          <mxGeometry x="116.5" y="200" width="50" height="50" as="geometry" />
        </mxCell>
        <mxCell id="0rAi-vja2p-2X7H4j2kv-8" value="" style="pointerEvents=1;shadow=0;dashed=0;html=1;strokeColor=none;fillColor=#434445;aspect=fixed;labelPosition=center;verticalLabelPosition=bottom;verticalAlign=top;align=center;outlineConnect=0;shape=mxgraph.vvd.virtual_machine;" vertex="1" parent="0rAi-vja2p-2X7H4j2kv-1">
          <mxGeometry x="126.5" y="210" width="50" height="50" as="geometry" />
        </mxCell>
        <mxCell id="0rAi-vja2p-2X7H4j2kv-9" value="" style="pointerEvents=1;shadow=0;dashed=0;html=1;strokeColor=none;fillColor=#434445;aspect=fixed;labelPosition=center;verticalLabelPosition=bottom;verticalAlign=top;align=center;outlineConnect=0;shape=mxgraph.vvd.virtual_machine;" vertex="1" parent="0rAi-vja2p-2X7H4j2kv-1">
          <mxGeometry x="136.5" y="220" width="50" height="50" as="geometry" />
        </mxCell>
        <mxCell id="0rAi-vja2p-2X7H4j2kv-10" value="" style="pointerEvents=1;shadow=0;dashed=0;html=1;strokeColor=none;fillColor=#434445;aspect=fixed;labelPosition=center;verticalLabelPosition=bottom;verticalAlign=top;align=center;outlineConnect=0;shape=mxgraph.vvd.virtual_machine;" vertex="1" parent="0rAi-vja2p-2X7H4j2kv-1">
          <mxGeometry x="146.5" y="230" width="50" height="50" as="geometry" />
        </mxCell>
        <mxCell id="0rAi-vja2p-2X7H4j2kv-11" value="VEEAM VM&lt;br&gt;on dedicated ESXi host&amp;nbsp;&lt;br&gt;LARGE LOCAL&lt;br&gt;x VMs (28 - 30) some big" style="rounded=1;whiteSpace=wrap;html=1;align=left;fillColor=#dae8fc;strokeColor=#6c8ebf;" vertex="1" parent="0rAi-vja2p-2X7H4j2kv-1">
          <mxGeometry x="306.5" y="190" width="163.5" height="60" as="geometry" />
        </mxCell>
        <mxCell id="0rAi-vja2p-2X7H4j2kv-12" value="" style="shape=flexArrow;endArrow=classic;html=1;" edge="1" parent="0rAi-vja2p-2X7H4j2kv-1" source="0rAi-vja2p-2X7H4j2kv-10" target="0rAi-vja2p-2X7H4j2kv-11">
          <mxGeometry width="50" height="50" relative="1" as="geometry">
            <mxPoint x="530" y="390" as="sourcePoint" />
            <mxPoint x="580" y="340" as="targetPoint" />
          </mxGeometry>
        </mxCell>
        <mxCell id="0rAi-vja2p-2X7H4j2kv-13" value="AWS STORAGE GW&lt;br&gt;VM APPLIANCE 1" style="rounded=1;whiteSpace=wrap;html=1;align=left;" vertex="1" parent="0rAi-vja2p-2X7H4j2kv-1">
          <mxGeometry x="420" y="270" width="123.5" height="60" as="geometry" />
        </mxCell>
        <mxCell id="0rAi-vja2p-2X7H4j2kv-14" value="VMDK ON FAST" style="shape=cylinder3;whiteSpace=wrap;html=1;boundedLbl=1;backgroundOutline=1;size=15;" vertex="1" parent="0rAi-vja2p-2X7H4j2kv-1">
          <mxGeometry x="540" y="390" width="110" height="100" as="geometry" />
        </mxCell>
        <mxCell id="0rAi-vja2p-2X7H4j2kv-15" value="Microsoft&amp;nbsp;&lt;br&gt;(File Sharing&lt;br&gt;Target (S)" style="text;html=1;strokeColor=none;fillColor=none;align=center;verticalAlign=middle;whiteSpace=wrap;rounded=0;" vertex="1" parent="0rAi-vja2p-2X7H4j2kv-1">
          <mxGeometry x="266.5" y="360" width="40" height="20" as="geometry" />
        </mxCell>
        <mxCell id="0rAi-vja2p-2X7H4j2kv-16" value="VPC" style="points=[[0,0],[0.25,0],[0.5,0],[0.75,0],[1,0],[1,0.25],[1,0.5],[1,0.75],[1,1],[0.75,1],[0.5,1],[0.25,1],[0,1],[0,0.75],[0,0.5],[0,0.25]];outlineConnect=0;gradientColor=none;html=1;whiteSpace=wrap;fontSize=12;fontStyle=0;shape=mxgraph.aws4.group;grIcon=mxgraph.aws4.group_vpc;strokeColor=#248814;fillColor=none;verticalAlign=top;align=left;spacingLeft=30;fontColor=#AAB7B8;dashed=0;" vertex="1" parent="0rAi-vja2p-2X7H4j2kv-1">
          <mxGeometry x="820" y="190" width="280" height="380" as="geometry" />
        </mxCell>
        <mxCell id="0rAi-vja2p-2X7H4j2kv-17" value="" style="outlineConnect=0;fontColor=#232F3E;gradientColor=none;fillColor=#277116;strokeColor=none;dashed=0;verticalLabelPosition=bottom;verticalAlign=top;align=center;html=1;fontSize=12;fontStyle=0;aspect=fixed;pointerEvents=1;shape=mxgraph.aws4.bucket;" vertex="1" parent="0rAi-vja2p-2X7H4j2kv-1">
          <mxGeometry x="960" y="280" width="75" height="78" as="geometry" />
        </mxCell>
        <mxCell id="0rAi-vja2p-2X7H4j2kv-18" value="" style="shape=flexArrow;endArrow=classic;html=1;fillColor=#d5e8d4;strokeColor=#82b366;" edge="1" parent="0rAi-vja2p-2X7H4j2kv-1" source="0rAi-vja2p-2X7H4j2kv-14" target="0rAi-vja2p-2X7H4j2kv-26">
          <mxGeometry width="50" height="50" relative="1" as="geometry">
            <mxPoint x="610" y="360" as="sourcePoint" />
            <mxPoint x="660" y="310" as="targetPoint" />
          </mxGeometry>
        </mxCell>
        <mxCell id="0rAi-vja2p-2X7H4j2kv-19" value="" style="shape=flexArrow;endArrow=classic;html=1;exitX=0.25;exitY=1;exitDx=0;exitDy=0;" edge="1" parent="0rAi-vja2p-2X7H4j2kv-1" source="0rAi-vja2p-2X7H4j2kv-11" target="0rAi-vja2p-2X7H4j2kv-13">
          <mxGeometry width="50" height="50" relative="1" as="geometry">
            <mxPoint x="346.5" y="275" as="sourcePoint" />
            <mxPoint x="500" y="285.7845433255269" as="targetPoint" />
          </mxGeometry>
        </mxCell>
        <mxCell id="0rAi-vja2p-2X7H4j2kv-20" value="NO 3PAR PHYSICAL CAPACITY&lt;br&gt;&lt;br&gt;WOULD REQUIRE ANOTHER SHELF&amp;nbsp;&lt;br&gt;&lt;br&gt;AGE OF EQUIPMENT COULD BE COST PROHIBITIVE" style="text;html=1;strokeColor=none;fillColor=none;align=center;verticalAlign=middle;whiteSpace=wrap;rounded=0;" vertex="1" parent="0rAi-vja2p-2X7H4j2kv-1">
          <mxGeometry x="141.5" y="620" width="308.5" height="20" as="geometry" />
        </mxCell>
        <mxCell id="0rAi-vja2p-2X7H4j2kv-21" value="DEDUPE ON 3PAR?&lt;br&gt;7.5K/10K/15K/SSD" style="text;html=1;strokeColor=none;fillColor=none;align=center;verticalAlign=middle;whiteSpace=wrap;rounded=0;" vertex="1" parent="0rAi-vja2p-2X7H4j2kv-1">
          <mxGeometry x="620" y="610" width="230" height="20" as="geometry" />
        </mxCell>
        <mxCell id="0rAi-vja2p-2X7H4j2kv-22" value="WORKLOAD TIERING&lt;br&gt;PRIORITY&lt;br&gt;" style="text;html=1;strokeColor=none;fillColor=none;align=center;verticalAlign=middle;whiteSpace=wrap;rounded=0;" vertex="1" parent="0rAi-vja2p-2X7H4j2kv-1">
          <mxGeometry x="977.5" y="600" width="40" height="20" as="geometry" />
        </mxCell>
        <mxCell id="0rAi-vja2p-2X7H4j2kv-23" value="vmdk ON SLOW" style="shape=cylinder3;whiteSpace=wrap;html=1;boundedLbl=1;backgroundOutline=1;size=15;" vertex="1" parent="0rAi-vja2p-2X7H4j2kv-1">
          <mxGeometry x="540" y="290" width="110" height="60" as="geometry" />
        </mxCell>
        <mxCell id="0rAi-vja2p-2X7H4j2kv-24" value="ABILITY TO PERFORM RECOVERY OPERATIONS - FREQUENT AND INFREQENT OPERATIONS" style="text;html=1;strokeColor=none;fillColor=none;align=center;verticalAlign=middle;whiteSpace=wrap;rounded=0;" vertex="1" parent="0rAi-vja2p-2X7H4j2kv-1">
          <mxGeometry x="600" y="670" width="40" height="20" as="geometry" />
        </mxCell>
        <mxCell id="0rAi-vja2p-2X7H4j2kv-25" value="SECOPS CONSIDERATIONS&lt;br&gt;RANSOMWARE&lt;br&gt;" style="text;html=1;strokeColor=none;fillColor=none;align=center;verticalAlign=middle;whiteSpace=wrap;rounded=0;" vertex="1" parent="0rAi-vja2p-2X7H4j2kv-1">
          <mxGeometry x="850" y="670" width="40" height="20" as="geometry" />
        </mxCell>
        <mxCell id="0rAi-vja2p-2X7H4j2kv-26" value="" style="outlineConnect=0;fontColor=#232F3E;gradientColor=none;fillColor=#277116;strokeColor=none;dashed=0;verticalLabelPosition=bottom;verticalAlign=top;align=center;html=1;fontSize=12;fontStyle=0;aspect=fixed;pointerEvents=1;shape=mxgraph.aws4.bucket;" vertex="1" parent="0rAi-vja2p-2X7H4j2kv-1">
          <mxGeometry x="960" y="390" width="75" height="78" as="geometry" />
        </mxCell>
        <mxCell id="0rAi-vja2p-2X7H4j2kv-27" value="AWS STORAGE GW&lt;br&gt;VM APPLIANCE 2" style="rounded=1;whiteSpace=wrap;html=1;align=left;" vertex="1" parent="0rAi-vja2p-2X7H4j2kv-1">
          <mxGeometry x="416.5" y="380" width="123.5" height="60" as="geometry" />
        </mxCell>
        <mxCell id="0rAi-vja2p-2X7H4j2kv-29" value="" style="shape=flexArrow;endArrow=classic;html=1;exitX=0.25;exitY=1;exitDx=0;exitDy=0;entryX=0;entryY=0.5;entryDx=0;entryDy=0;" edge="1" parent="0rAi-vja2p-2X7H4j2kv-1" target="0rAi-vja2p-2X7H4j2kv-27">
          <mxGeometry width="50" height="50" relative="1" as="geometry">
            <mxPoint x="357.375" y="260" as="sourcePoint" />
            <mxPoint x="430" y="287.0232558139535" as="targetPoint" />
          </mxGeometry>
        </mxCell>
        <mxCell id="0rAi-vja2p-2X7H4j2kv-30" value="" style="shape=flexArrow;endArrow=classic;html=1;fillColor=#d5e8d4;strokeColor=#82b366;" edge="1" parent="0rAi-vja2p-2X7H4j2kv-1">
          <mxGeometry width="50" height="50" relative="1" as="geometry">
            <mxPoint x="647.5" y="310.7798224852071" as="sourcePoint" />
            <mxPoint x="977.5" y="309.9987573964497" as="targetPoint" />
          </mxGeometry>
        </mxCell>
      </root>
    </mxGraphModel>
  </diagram>
  <diagram name="Copy of Copy of Copy of LARGE LOCAL" id="tqXZ1GQFI65g0a1imeEf">
    <mxGraphModel dx="1060" dy="579" grid="1" gridSize="10" guides="1" tooltips="1" connect="1" arrows="1" fold="1" page="1" pageScale="1" pageWidth="1169" pageHeight="827" math="0" shadow="0">
      <root>
        <mxCell id="iUZNTCH6S1HeRFhg29L5-0" />
        <mxCell id="iUZNTCH6S1HeRFhg29L5-1" parent="iUZNTCH6S1HeRFhg29L5-0" />
        <mxCell id="iUZNTCH6S1HeRFhg29L5-2" value="" style="rounded=1;whiteSpace=wrap;html=1;align=left;" vertex="1" parent="iUZNTCH6S1HeRFhg29L5-1">
          <mxGeometry x="60" y="180" width="570" height="400" as="geometry" />
        </mxCell>
        <mxCell id="iUZNTCH6S1HeRFhg29L5-3" value="UHI AWS Review" style="text;html=1;resizable=0;points=[];autosize=1;align=left;verticalAlign=top;spacingTop=-4;fontSize=30;fontStyle=1" vertex="1" parent="iUZNTCH6S1HeRFhg29L5-1">
          <mxGeometry x="56.5" y="64.5" width="250" height="40" as="geometry" />
        </mxCell>
        <mxCell id="iUZNTCH6S1HeRFhg29L5-4" value="Subtitle text&lt;br style=&quot;font-size: 16px&quot;&gt;" style="text;html=1;resizable=0;points=[];autosize=1;align=left;verticalAlign=top;spacingTop=-4;fontSize=16;" vertex="1" parent="iUZNTCH6S1HeRFhg29L5-1">
          <mxGeometry x="56.5" y="114.5" width="100" height="20" as="geometry" />
        </mxCell>
        <mxCell id="iUZNTCH6S1HeRFhg29L5-5" value="" style="line;strokeWidth=2;html=1;fontSize=14;" vertex="1" parent="iUZNTCH6S1HeRFhg29L5-1">
          <mxGeometry x="52.5" y="139.5" width="1060" height="10" as="geometry" />
        </mxCell>
        <mxCell id="iUZNTCH6S1HeRFhg29L5-6" value="" style="pointerEvents=1;shadow=0;dashed=0;html=1;strokeColor=none;fillColor=#434445;aspect=fixed;labelPosition=center;verticalLabelPosition=bottom;verticalAlign=top;align=center;outlineConnect=0;shape=mxgraph.vvd.virtual_machine;" vertex="1" parent="iUZNTCH6S1HeRFhg29L5-1">
          <mxGeometry x="106.5" y="190" width="50" height="50" as="geometry" />
        </mxCell>
        <mxCell id="iUZNTCH6S1HeRFhg29L5-7" value="" style="pointerEvents=1;shadow=0;dashed=0;html=1;strokeColor=none;fillColor=#434445;aspect=fixed;labelPosition=center;verticalLabelPosition=bottom;verticalAlign=top;align=center;outlineConnect=0;shape=mxgraph.vvd.virtual_machine;" vertex="1" parent="iUZNTCH6S1HeRFhg29L5-1">
          <mxGeometry x="116.5" y="200" width="50" height="50" as="geometry" />
        </mxCell>
        <mxCell id="iUZNTCH6S1HeRFhg29L5-8" value="" style="pointerEvents=1;shadow=0;dashed=0;html=1;strokeColor=none;fillColor=#434445;aspect=fixed;labelPosition=center;verticalLabelPosition=bottom;verticalAlign=top;align=center;outlineConnect=0;shape=mxgraph.vvd.virtual_machine;" vertex="1" parent="iUZNTCH6S1HeRFhg29L5-1">
          <mxGeometry x="126.5" y="210" width="50" height="50" as="geometry" />
        </mxCell>
        <mxCell id="iUZNTCH6S1HeRFhg29L5-9" value="" style="pointerEvents=1;shadow=0;dashed=0;html=1;strokeColor=none;fillColor=#434445;aspect=fixed;labelPosition=center;verticalLabelPosition=bottom;verticalAlign=top;align=center;outlineConnect=0;shape=mxgraph.vvd.virtual_machine;" vertex="1" parent="iUZNTCH6S1HeRFhg29L5-1">
          <mxGeometry x="136.5" y="220" width="50" height="50" as="geometry" />
        </mxCell>
        <mxCell id="iUZNTCH6S1HeRFhg29L5-10" value="" style="pointerEvents=1;shadow=0;dashed=0;html=1;strokeColor=none;fillColor=#434445;aspect=fixed;labelPosition=center;verticalLabelPosition=bottom;verticalAlign=top;align=center;outlineConnect=0;shape=mxgraph.vvd.virtual_machine;" vertex="1" parent="iUZNTCH6S1HeRFhg29L5-1">
          <mxGeometry x="146.5" y="230" width="50" height="50" as="geometry" />
        </mxCell>
        <mxCell id="iUZNTCH6S1HeRFhg29L5-11" value="VEEAM VM&lt;br&gt;on dedicated ESXi host&amp;nbsp;&lt;br&gt;LARGE LOCAL&lt;br&gt;x VMs (28 - 30) some big" style="rounded=1;whiteSpace=wrap;html=1;align=left;fillColor=#dae8fc;strokeColor=#6c8ebf;" vertex="1" parent="iUZNTCH6S1HeRFhg29L5-1">
          <mxGeometry x="306.5" y="190" width="163.5" height="60" as="geometry" />
        </mxCell>
        <mxCell id="iUZNTCH6S1HeRFhg29L5-12" value="" style="shape=flexArrow;endArrow=classic;html=1;" edge="1" parent="iUZNTCH6S1HeRFhg29L5-1" source="iUZNTCH6S1HeRFhg29L5-10" target="iUZNTCH6S1HeRFhg29L5-11">
          <mxGeometry width="50" height="50" relative="1" as="geometry">
            <mxPoint x="530" y="390" as="sourcePoint" />
            <mxPoint x="580" y="340" as="targetPoint" />
          </mxGeometry>
        </mxCell>
        <mxCell id="iUZNTCH6S1HeRFhg29L5-13" value="AWS STORAGE GW&lt;br&gt;VM APPLIANCE 1" style="rounded=1;whiteSpace=wrap;html=1;align=left;" vertex="1" parent="iUZNTCH6S1HeRFhg29L5-1">
          <mxGeometry x="416.5" y="414" width="123.5" height="60" as="geometry" />
        </mxCell>
        <mxCell id="iUZNTCH6S1HeRFhg29L5-14" value="VMDK ON FAST" style="shape=cylinder3;whiteSpace=wrap;html=1;boundedLbl=1;backgroundOutline=1;size=15;" vertex="1" parent="iUZNTCH6S1HeRFhg29L5-1">
          <mxGeometry x="540" y="430" width="70" height="60" as="geometry" />
        </mxCell>
        <mxCell id="iUZNTCH6S1HeRFhg29L5-15" value="Iscsi CACHED VOLUME TARGET&lt;br&gt;&lt;br&gt;E:\" style="text;html=1;strokeColor=none;fillColor=none;align=center;verticalAlign=middle;whiteSpace=wrap;rounded=0;" vertex="1" parent="iUZNTCH6S1HeRFhg29L5-1">
          <mxGeometry x="350" y="434" width="40" height="20" as="geometry" />
        </mxCell>
        <mxCell id="iUZNTCH6S1HeRFhg29L5-16" value="VPC" style="points=[[0,0],[0.25,0],[0.5,0],[0.75,0],[1,0],[1,0.25],[1,0.5],[1,0.75],[1,1],[0.75,1],[0.5,1],[0.25,1],[0,1],[0,0.75],[0,0.5],[0,0.25]];outlineConnect=0;gradientColor=none;html=1;whiteSpace=wrap;fontSize=12;fontStyle=0;shape=mxgraph.aws4.group;grIcon=mxgraph.aws4.group_vpc;strokeColor=#248814;fillColor=none;verticalAlign=top;align=left;spacingLeft=30;fontColor=#AAB7B8;dashed=0;" vertex="1" parent="iUZNTCH6S1HeRFhg29L5-1">
          <mxGeometry x="820" y="190" width="280" height="380" as="geometry" />
        </mxCell>
        <mxCell id="iUZNTCH6S1HeRFhg29L5-18" value="" style="shape=flexArrow;endArrow=classic;html=1;fillColor=#d5e8d4;strokeColor=#82b366;" edge="1" parent="iUZNTCH6S1HeRFhg29L5-1" source="iUZNTCH6S1HeRFhg29L5-14" target="iUZNTCH6S1HeRFhg29L5-26">
          <mxGeometry width="50" height="50" relative="1" as="geometry">
            <mxPoint x="610" y="360" as="sourcePoint" />
            <mxPoint x="660" y="310" as="targetPoint" />
          </mxGeometry>
        </mxCell>
        <mxCell id="iUZNTCH6S1HeRFhg29L5-19" value="" style="shape=flexArrow;endArrow=classic;html=1;exitX=0.998;exitY=0.623;exitDx=0;exitDy=0;exitPerimeter=0;" edge="1" parent="iUZNTCH6S1HeRFhg29L5-1" source="iUZNTCH6S1HeRFhg29L5-11" target="iUZNTCH6S1HeRFhg29L5-30">
          <mxGeometry width="50" height="50" relative="1" as="geometry">
            <mxPoint x="346.5" y="275" as="sourcePoint" />
            <mxPoint x="500" y="285.7845433255269" as="targetPoint" />
          </mxGeometry>
        </mxCell>
        <mxCell id="iUZNTCH6S1HeRFhg29L5-20" value="NO 3PAR PHYSICAL CAPACITY&lt;br&gt;&lt;br&gt;WOULD REQUIRE ANOTHER SHELF&amp;nbsp;&lt;br&gt;&lt;br&gt;AGE OF EQUIPMENT COULD BE COST PROHIBITIVE" style="text;html=1;strokeColor=none;fillColor=none;align=center;verticalAlign=middle;whiteSpace=wrap;rounded=0;" vertex="1" parent="iUZNTCH6S1HeRFhg29L5-1">
          <mxGeometry x="141.5" y="620" width="308.5" height="20" as="geometry" />
        </mxCell>
        <mxCell id="iUZNTCH6S1HeRFhg29L5-21" value="DEDUPE ON 3PAR?&lt;br&gt;7.5K/10K/15K/SSD" style="text;html=1;strokeColor=none;fillColor=none;align=center;verticalAlign=middle;whiteSpace=wrap;rounded=0;" vertex="1" parent="iUZNTCH6S1HeRFhg29L5-1">
          <mxGeometry x="620" y="610" width="230" height="20" as="geometry" />
        </mxCell>
        <mxCell id="iUZNTCH6S1HeRFhg29L5-22" value="WORKLOAD TIERING&lt;br&gt;PRIORITY&lt;br&gt;" style="text;html=1;strokeColor=none;fillColor=none;align=center;verticalAlign=middle;whiteSpace=wrap;rounded=0;" vertex="1" parent="iUZNTCH6S1HeRFhg29L5-1">
          <mxGeometry x="977.5" y="600" width="40" height="20" as="geometry" />
        </mxCell>
        <mxCell id="iUZNTCH6S1HeRFhg29L5-24" value="ABILITY TO PERFORM RECOVERY OPERATIONS - FREQUENT AND INFREQENT OPERATIONS" style="text;html=1;strokeColor=none;fillColor=none;align=center;verticalAlign=middle;whiteSpace=wrap;rounded=0;" vertex="1" parent="iUZNTCH6S1HeRFhg29L5-1">
          <mxGeometry x="600" y="670" width="40" height="20" as="geometry" />
        </mxCell>
        <mxCell id="iUZNTCH6S1HeRFhg29L5-25" value="SECOPS CONSIDERATIONS&lt;br&gt;RANSOMWARE&lt;br&gt;" style="text;html=1;strokeColor=none;fillColor=none;align=center;verticalAlign=middle;whiteSpace=wrap;rounded=0;" vertex="1" parent="iUZNTCH6S1HeRFhg29L5-1">
          <mxGeometry x="850" y="670" width="40" height="20" as="geometry" />
        </mxCell>
        <mxCell id="iUZNTCH6S1HeRFhg29L5-26" value="" style="outlineConnect=0;fontColor=#232F3E;gradientColor=none;fillColor=#277116;strokeColor=none;dashed=0;verticalLabelPosition=bottom;verticalAlign=top;align=center;html=1;fontSize=12;fontStyle=0;aspect=fixed;pointerEvents=1;shape=mxgraph.aws4.bucket;" vertex="1" parent="iUZNTCH6S1HeRFhg29L5-1">
          <mxGeometry x="960" y="390" width="75" height="78" as="geometry" />
        </mxCell>
        <mxCell id="iUZNTCH6S1HeRFhg29L5-30" value="D:\&lt;br&gt;SAS&lt;br&gt;3.7TB" style="shape=cylinder3;whiteSpace=wrap;html=1;boundedLbl=1;backgroundOutline=1;size=15;" vertex="1" parent="iUZNTCH6S1HeRFhg29L5-1">
          <mxGeometry x="540" y="195" width="110" height="100" as="geometry" />
        </mxCell>
        <mxCell id="iUZNTCH6S1HeRFhg29L5-32" value="" style="shape=flexArrow;endArrow=classic;html=1;entryX=0.25;entryY=0;entryDx=0;entryDy=0;" edge="1" parent="iUZNTCH6S1HeRFhg29L5-1" source="iUZNTCH6S1HeRFhg29L5-11" target="iUZNTCH6S1HeRFhg29L5-13">
          <mxGeometry width="50" height="50" relative="1" as="geometry">
            <mxPoint x="600" y="430" as="sourcePoint" />
            <mxPoint x="650" y="380" as="targetPoint" />
          </mxGeometry>
        </mxCell>
        <mxCell id="iUZNTCH6S1HeRFhg29L5-33" value="SCHEDULED COPY&lt;br&gt;COULD USE&lt;br&gt;AWS S3 CP HTTPS://MYBUCKET.S3.AMAZONAWS.COM" style="text;html=1;strokeColor=none;fillColor=none;align=left;verticalAlign=middle;whiteSpace=wrap;rounded=0;" vertex="1" parent="iUZNTCH6S1HeRFhg29L5-1">
          <mxGeometry x="470" y="330" width="40" height="20" as="geometry" />
        </mxCell>
      </root>
    </mxGraphModel>
  </diagram>
  <diagram name="Copy of Copy of Copy of Copy of LARGE LOCAL" id="X0MxVYlAZ4QmUECWByUb">
    <mxGraphModel dx="1060" dy="579" grid="1" gridSize="10" guides="1" tooltips="1" connect="1" arrows="1" fold="1" page="1" pageScale="1" pageWidth="1169" pageHeight="827" math="0" shadow="0">
      <root>
        <mxCell id="jIMZkdImuWG51WL2FI3--0" />
        <mxCell id="jIMZkdImuWG51WL2FI3--1" parent="jIMZkdImuWG51WL2FI3--0" />
        <mxCell id="jIMZkdImuWG51WL2FI3--2" value="" style="rounded=1;whiteSpace=wrap;html=1;align=left;" vertex="1" parent="jIMZkdImuWG51WL2FI3--1">
          <mxGeometry x="60" y="180" width="570" height="400" as="geometry" />
        </mxCell>
        <mxCell id="jIMZkdImuWG51WL2FI3--3" value="UHI AWS Review" style="text;html=1;resizable=0;points=[];autosize=1;align=left;verticalAlign=top;spacingTop=-4;fontSize=30;fontStyle=1" vertex="1" parent="jIMZkdImuWG51WL2FI3--1">
          <mxGeometry x="56.5" y="64.5" width="250" height="40" as="geometry" />
        </mxCell>
        <mxCell id="jIMZkdImuWG51WL2FI3--4" value="Subtitle text&lt;br style=&quot;font-size: 16px&quot;&gt;" style="text;html=1;resizable=0;points=[];autosize=1;align=left;verticalAlign=top;spacingTop=-4;fontSize=16;" vertex="1" parent="jIMZkdImuWG51WL2FI3--1">
          <mxGeometry x="56.5" y="114.5" width="100" height="20" as="geometry" />
        </mxCell>
        <mxCell id="jIMZkdImuWG51WL2FI3--5" value="" style="line;strokeWidth=2;html=1;fontSize=14;" vertex="1" parent="jIMZkdImuWG51WL2FI3--1">
          <mxGeometry x="52.5" y="139.5" width="1060" height="10" as="geometry" />
        </mxCell>
        <mxCell id="jIMZkdImuWG51WL2FI3--6" value="" style="pointerEvents=1;shadow=0;dashed=0;html=1;strokeColor=none;fillColor=#434445;aspect=fixed;labelPosition=center;verticalLabelPosition=bottom;verticalAlign=top;align=center;outlineConnect=0;shape=mxgraph.vvd.virtual_machine;" vertex="1" parent="jIMZkdImuWG51WL2FI3--1">
          <mxGeometry x="106.5" y="190" width="50" height="50" as="geometry" />
        </mxCell>
        <mxCell id="jIMZkdImuWG51WL2FI3--7" value="" style="pointerEvents=1;shadow=0;dashed=0;html=1;strokeColor=none;fillColor=#434445;aspect=fixed;labelPosition=center;verticalLabelPosition=bottom;verticalAlign=top;align=center;outlineConnect=0;shape=mxgraph.vvd.virtual_machine;" vertex="1" parent="jIMZkdImuWG51WL2FI3--1">
          <mxGeometry x="116.5" y="200" width="50" height="50" as="geometry" />
        </mxCell>
        <mxCell id="jIMZkdImuWG51WL2FI3--8" value="" style="pointerEvents=1;shadow=0;dashed=0;html=1;strokeColor=none;fillColor=#434445;aspect=fixed;labelPosition=center;verticalLabelPosition=bottom;verticalAlign=top;align=center;outlineConnect=0;shape=mxgraph.vvd.virtual_machine;" vertex="1" parent="jIMZkdImuWG51WL2FI3--1">
          <mxGeometry x="126.5" y="210" width="50" height="50" as="geometry" />
        </mxCell>
        <mxCell id="jIMZkdImuWG51WL2FI3--9" value="" style="pointerEvents=1;shadow=0;dashed=0;html=1;strokeColor=none;fillColor=#434445;aspect=fixed;labelPosition=center;verticalLabelPosition=bottom;verticalAlign=top;align=center;outlineConnect=0;shape=mxgraph.vvd.virtual_machine;" vertex="1" parent="jIMZkdImuWG51WL2FI3--1">
          <mxGeometry x="136.5" y="220" width="50" height="50" as="geometry" />
        </mxCell>
        <mxCell id="jIMZkdImuWG51WL2FI3--10" value="" style="pointerEvents=1;shadow=0;dashed=0;html=1;strokeColor=none;fillColor=#434445;aspect=fixed;labelPosition=center;verticalLabelPosition=bottom;verticalAlign=top;align=center;outlineConnect=0;shape=mxgraph.vvd.virtual_machine;" vertex="1" parent="jIMZkdImuWG51WL2FI3--1">
          <mxGeometry x="146.5" y="230" width="50" height="50" as="geometry" />
        </mxCell>
        <mxCell id="jIMZkdImuWG51WL2FI3--11" value="VEEAM VM&lt;br&gt;on dedicated ESXi host&amp;nbsp;&lt;br&gt;LARGE LOCAL&lt;br&gt;x VMs (28 - 30) some big" style="rounded=1;whiteSpace=wrap;html=1;align=left;fillColor=#dae8fc;strokeColor=#6c8ebf;" vertex="1" parent="jIMZkdImuWG51WL2FI3--1">
          <mxGeometry x="306.5" y="190" width="163.5" height="60" as="geometry" />
        </mxCell>
        <mxCell id="jIMZkdImuWG51WL2FI3--12" value="" style="shape=flexArrow;endArrow=classic;html=1;" edge="1" parent="jIMZkdImuWG51WL2FI3--1" source="jIMZkdImuWG51WL2FI3--10" target="jIMZkdImuWG51WL2FI3--11">
          <mxGeometry width="50" height="50" relative="1" as="geometry">
            <mxPoint x="530" y="390" as="sourcePoint" />
            <mxPoint x="580" y="340" as="targetPoint" />
          </mxGeometry>
        </mxCell>
        <mxCell id="jIMZkdImuWG51WL2FI3--16" value="VPC" style="points=[[0,0],[0.25,0],[0.5,0],[0.75,0],[1,0],[1,0.25],[1,0.5],[1,0.75],[1,1],[0.75,1],[0.5,1],[0.25,1],[0,1],[0,0.75],[0,0.5],[0,0.25]];outlineConnect=0;gradientColor=none;html=1;whiteSpace=wrap;fontSize=12;fontStyle=0;shape=mxgraph.aws4.group;grIcon=mxgraph.aws4.group_vpc;strokeColor=#248814;fillColor=none;verticalAlign=top;align=left;spacingLeft=30;fontColor=#AAB7B8;dashed=0;" vertex="1" parent="jIMZkdImuWG51WL2FI3--1">
          <mxGeometry x="820" y="190" width="280" height="380" as="geometry" />
        </mxCell>
        <mxCell id="jIMZkdImuWG51WL2FI3--18" value="" style="shape=flexArrow;endArrow=classic;html=1;exitX=0.998;exitY=0.623;exitDx=0;exitDy=0;exitPerimeter=0;" edge="1" parent="jIMZkdImuWG51WL2FI3--1" source="jIMZkdImuWG51WL2FI3--11" target="jIMZkdImuWG51WL2FI3--25">
          <mxGeometry width="50" height="50" relative="1" as="geometry">
            <mxPoint x="346.5" y="275" as="sourcePoint" />
            <mxPoint x="500" y="285.7845433255269" as="targetPoint" />
          </mxGeometry>
        </mxCell>
        <mxCell id="jIMZkdImuWG51WL2FI3--19" value="NO 3PAR PHYSICAL CAPACITY&lt;br&gt;&lt;br&gt;WOULD REQUIRE ANOTHER SHELF&amp;nbsp;&lt;br&gt;&lt;br&gt;AGE OF EQUIPMENT COULD BE COST PROHIBITIVE" style="text;html=1;strokeColor=none;fillColor=none;align=center;verticalAlign=middle;whiteSpace=wrap;rounded=0;" vertex="1" parent="jIMZkdImuWG51WL2FI3--1">
          <mxGeometry x="141.5" y="620" width="308.5" height="20" as="geometry" />
        </mxCell>
        <mxCell id="jIMZkdImuWG51WL2FI3--20" value="DEDUPE ON 3PAR?&lt;br&gt;7.5K/10K/15K/SSD" style="text;html=1;strokeColor=none;fillColor=none;align=center;verticalAlign=middle;whiteSpace=wrap;rounded=0;" vertex="1" parent="jIMZkdImuWG51WL2FI3--1">
          <mxGeometry x="620" y="610" width="230" height="20" as="geometry" />
        </mxCell>
        <mxCell id="jIMZkdImuWG51WL2FI3--21" value="WORKLOAD TIERING&lt;br&gt;PRIORITY&lt;br&gt;" style="text;html=1;strokeColor=none;fillColor=none;align=center;verticalAlign=middle;whiteSpace=wrap;rounded=0;" vertex="1" parent="jIMZkdImuWG51WL2FI3--1">
          <mxGeometry x="977.5" y="600" width="40" height="20" as="geometry" />
        </mxCell>
        <mxCell id="jIMZkdImuWG51WL2FI3--22" value="ABILITY TO PERFORM RECOVERY OPERATIONS - FREQUENT AND INFREQENT OPERATIONS" style="text;html=1;strokeColor=none;fillColor=none;align=center;verticalAlign=middle;whiteSpace=wrap;rounded=0;" vertex="1" parent="jIMZkdImuWG51WL2FI3--1">
          <mxGeometry x="600" y="670" width="40" height="20" as="geometry" />
        </mxCell>
        <mxCell id="jIMZkdImuWG51WL2FI3--23" value="SECOPS CONSIDERATIONS&lt;br&gt;RANSOMWARE&lt;br&gt;" style="text;html=1;strokeColor=none;fillColor=none;align=center;verticalAlign=middle;whiteSpace=wrap;rounded=0;" vertex="1" parent="jIMZkdImuWG51WL2FI3--1">
          <mxGeometry x="850" y="670" width="40" height="20" as="geometry" />
        </mxCell>
        <mxCell id="jIMZkdImuWG51WL2FI3--24" value="" style="outlineConnect=0;fontColor=#232F3E;gradientColor=none;fillColor=#277116;strokeColor=none;dashed=0;verticalLabelPosition=bottom;verticalAlign=top;align=center;html=1;fontSize=12;fontStyle=0;aspect=fixed;pointerEvents=1;shape=mxgraph.aws4.bucket;" vertex="1" parent="jIMZkdImuWG51WL2FI3--1">
          <mxGeometry x="960" y="390" width="75" height="78" as="geometry" />
        </mxCell>
        <mxCell id="jIMZkdImuWG51WL2FI3--25" value="D:\&lt;br&gt;SAS&lt;br&gt;3.7TB" style="shape=cylinder3;whiteSpace=wrap;html=1;boundedLbl=1;backgroundOutline=1;size=15;" vertex="1" parent="jIMZkdImuWG51WL2FI3--1">
          <mxGeometry x="540" y="195" width="110" height="100" as="geometry" />
        </mxCell>
        <mxCell id="jIMZkdImuWG51WL2FI3--26" value="" style="shape=flexArrow;endArrow=classic;html=1;" edge="1" parent="jIMZkdImuWG51WL2FI3--1" source="jIMZkdImuWG51WL2FI3--11" target="jIMZkdImuWG51WL2FI3--24">
          <mxGeometry width="50" height="50" relative="1" as="geometry">
            <mxPoint x="600" y="430" as="sourcePoint" />
            <mxPoint x="447.375" y="414" as="targetPoint" />
          </mxGeometry>
        </mxCell>
        <mxCell id="jIMZkdImuWG51WL2FI3--27" value="SCHEDULED COPY&lt;br&gt;COULD USE&lt;br&gt;AWS S3 CP HTTPS://MYBUCKET.S3.AMAZONAWS.COM" style="text;html=1;strokeColor=none;fillColor=none;align=left;verticalAlign=middle;whiteSpace=wrap;rounded=0;" vertex="1" parent="jIMZkdImuWG51WL2FI3--1">
          <mxGeometry x="176.5" y="360" width="290" height="20" as="geometry" />
        </mxCell>
        <mxCell id="jIMZkdImuWG51WL2FI3--30" value="aws s3 cp s3://bucket d:\ local" style="text;html=1;strokeColor=none;fillColor=none;align=center;verticalAlign=middle;whiteSpace=wrap;rounded=0;fontStyle=1" vertex="1" parent="jIMZkdImuWG51WL2FI3--1">
          <mxGeometry x="160" y="448" width="230" height="20" as="geometry" />
        </mxCell>
      </root>
    </mxGraphModel>
  </diagram>
  <diagram name="Copy of Copy of Copy of Copy of Copy of LARGE LOCAL" id="iWTx9mrt_FWTgH7nMhqR">
    <mxGraphModel dx="1300" dy="579" grid="1" gridSize="10" guides="1" tooltips="1" connect="1" arrows="1" fold="1" page="1" pageScale="1" pageWidth="1169" pageHeight="827" math="0" shadow="0">
      <root>
        <mxCell id="AwgWJLQxV-1oAEGPnosM-0" />
        <mxCell id="AwgWJLQxV-1oAEGPnosM-1" parent="AwgWJLQxV-1oAEGPnosM-0" />
        <mxCell id="AwgWJLQxV-1oAEGPnosM-2" value="" style="rounded=1;whiteSpace=wrap;html=1;align=left;" vertex="1" parent="AwgWJLQxV-1oAEGPnosM-1">
          <mxGeometry x="60" y="180" width="570" height="400" as="geometry" />
        </mxCell>
        <mxCell id="AwgWJLQxV-1oAEGPnosM-3" value="UHI AWS Review" style="text;html=1;resizable=0;points=[];autosize=1;align=left;verticalAlign=top;spacingTop=-4;fontSize=30;fontStyle=1" vertex="1" parent="AwgWJLQxV-1oAEGPnosM-1">
          <mxGeometry x="56.5" y="64.5" width="250" height="40" as="geometry" />
        </mxCell>
        <mxCell id="AwgWJLQxV-1oAEGPnosM-4" value="Subtitle text&lt;br style=&quot;font-size: 16px&quot;&gt;" style="text;html=1;resizable=0;points=[];autosize=1;align=left;verticalAlign=top;spacingTop=-4;fontSize=16;" vertex="1" parent="AwgWJLQxV-1oAEGPnosM-1">
          <mxGeometry x="56.5" y="114.5" width="100" height="20" as="geometry" />
        </mxCell>
        <mxCell id="AwgWJLQxV-1oAEGPnosM-5" value="" style="line;strokeWidth=2;html=1;fontSize=14;" vertex="1" parent="AwgWJLQxV-1oAEGPnosM-1">
          <mxGeometry x="52.5" y="139.5" width="1060" height="10" as="geometry" />
        </mxCell>
        <mxCell id="AwgWJLQxV-1oAEGPnosM-6" value="" style="pointerEvents=1;shadow=0;dashed=0;html=1;strokeColor=none;fillColor=#434445;aspect=fixed;labelPosition=center;verticalLabelPosition=bottom;verticalAlign=top;align=center;outlineConnect=0;shape=mxgraph.vvd.virtual_machine;" vertex="1" parent="AwgWJLQxV-1oAEGPnosM-1">
          <mxGeometry x="106.5" y="190" width="50" height="50" as="geometry" />
        </mxCell>
        <mxCell id="AwgWJLQxV-1oAEGPnosM-7" value="" style="pointerEvents=1;shadow=0;dashed=0;html=1;strokeColor=none;fillColor=#434445;aspect=fixed;labelPosition=center;verticalLabelPosition=bottom;verticalAlign=top;align=center;outlineConnect=0;shape=mxgraph.vvd.virtual_machine;" vertex="1" parent="AwgWJLQxV-1oAEGPnosM-1">
          <mxGeometry x="116.5" y="200" width="50" height="50" as="geometry" />
        </mxCell>
        <mxCell id="AwgWJLQxV-1oAEGPnosM-8" value="" style="pointerEvents=1;shadow=0;dashed=0;html=1;strokeColor=none;fillColor=#434445;aspect=fixed;labelPosition=center;verticalLabelPosition=bottom;verticalAlign=top;align=center;outlineConnect=0;shape=mxgraph.vvd.virtual_machine;" vertex="1" parent="AwgWJLQxV-1oAEGPnosM-1">
          <mxGeometry x="126.5" y="210" width="50" height="50" as="geometry" />
        </mxCell>
        <mxCell id="AwgWJLQxV-1oAEGPnosM-9" value="" style="pointerEvents=1;shadow=0;dashed=0;html=1;strokeColor=none;fillColor=#434445;aspect=fixed;labelPosition=center;verticalLabelPosition=bottom;verticalAlign=top;align=center;outlineConnect=0;shape=mxgraph.vvd.virtual_machine;" vertex="1" parent="AwgWJLQxV-1oAEGPnosM-1">
          <mxGeometry x="136.5" y="220" width="50" height="50" as="geometry" />
        </mxCell>
        <mxCell id="AwgWJLQxV-1oAEGPnosM-10" value="" style="pointerEvents=1;shadow=0;dashed=0;html=1;strokeColor=none;fillColor=#434445;aspect=fixed;labelPosition=center;verticalLabelPosition=bottom;verticalAlign=top;align=center;outlineConnect=0;shape=mxgraph.vvd.virtual_machine;" vertex="1" parent="AwgWJLQxV-1oAEGPnosM-1">
          <mxGeometry x="146.5" y="230" width="50" height="50" as="geometry" />
        </mxCell>
        <mxCell id="AwgWJLQxV-1oAEGPnosM-11" value="VEEAM1 VM&lt;br&gt;on dedicated ESXi host&amp;nbsp;&lt;br&gt;LARGE LOCAL&lt;br&gt;x VMs (28 - 30) some big" style="rounded=1;whiteSpace=wrap;html=1;align=left;fillColor=#dae8fc;strokeColor=#6c8ebf;" vertex="1" parent="AwgWJLQxV-1oAEGPnosM-1">
          <mxGeometry x="306.5" y="190" width="163.5" height="60" as="geometry" />
        </mxCell>
        <mxCell id="AwgWJLQxV-1oAEGPnosM-12" value="" style="shape=flexArrow;endArrow=classic;html=1;" edge="1" parent="AwgWJLQxV-1oAEGPnosM-1" source="AwgWJLQxV-1oAEGPnosM-10" target="AwgWJLQxV-1oAEGPnosM-11">
          <mxGeometry width="50" height="50" relative="1" as="geometry">
            <mxPoint x="530" y="390" as="sourcePoint" />
            <mxPoint x="580" y="340" as="targetPoint" />
          </mxGeometry>
        </mxCell>
        <mxCell id="AwgWJLQxV-1oAEGPnosM-13" value="VPC" style="points=[[0,0],[0.25,0],[0.5,0],[0.75,0],[1,0],[1,0.25],[1,0.5],[1,0.75],[1,1],[0.75,1],[0.5,1],[0.25,1],[0,1],[0,0.75],[0,0.5],[0,0.25]];outlineConnect=0;gradientColor=none;html=1;whiteSpace=wrap;fontSize=12;fontStyle=0;shape=mxgraph.aws4.group;grIcon=mxgraph.aws4.group_vpc;strokeColor=#248814;fillColor=none;verticalAlign=top;align=left;spacingLeft=30;fontColor=#AAB7B8;dashed=0;" vertex="1" parent="AwgWJLQxV-1oAEGPnosM-1">
          <mxGeometry x="820" y="190" width="280" height="380" as="geometry" />
        </mxCell>
        <mxCell id="AwgWJLQxV-1oAEGPnosM-14" value="" style="shape=flexArrow;endArrow=classic;html=1;exitX=0.998;exitY=0.623;exitDx=0;exitDy=0;exitPerimeter=0;" edge="1" parent="AwgWJLQxV-1oAEGPnosM-1" source="AwgWJLQxV-1oAEGPnosM-11" target="AwgWJLQxV-1oAEGPnosM-21">
          <mxGeometry width="50" height="50" relative="1" as="geometry">
            <mxPoint x="346.5" y="275" as="sourcePoint" />
            <mxPoint x="500" y="285.7845433255269" as="targetPoint" />
          </mxGeometry>
        </mxCell>
        <mxCell id="AwgWJLQxV-1oAEGPnosM-15" value="NO 3PAR PHYSICAL CAPACITY&lt;br&gt;&lt;br&gt;WOULD REQUIRE ANOTHER SHELF&amp;nbsp;&lt;br&gt;&lt;br&gt;AGE OF EQUIPMENT COULD BE COST PROHIBITIVE" style="text;html=1;strokeColor=none;fillColor=none;align=center;verticalAlign=middle;whiteSpace=wrap;rounded=0;" vertex="1" parent="AwgWJLQxV-1oAEGPnosM-1">
          <mxGeometry x="141.5" y="620" width="308.5" height="20" as="geometry" />
        </mxCell>
        <mxCell id="AwgWJLQxV-1oAEGPnosM-16" value="DEDUPE ON 3PAR?&lt;br&gt;7.5K/10K/15K/SSD" style="text;html=1;strokeColor=none;fillColor=none;align=center;verticalAlign=middle;whiteSpace=wrap;rounded=0;" vertex="1" parent="AwgWJLQxV-1oAEGPnosM-1">
          <mxGeometry x="620" y="610" width="230" height="20" as="geometry" />
        </mxCell>
        <mxCell id="AwgWJLQxV-1oAEGPnosM-17" value="WORKLOAD TIERING&lt;br&gt;PRIORITY&lt;br&gt;" style="text;html=1;strokeColor=none;fillColor=none;align=center;verticalAlign=middle;whiteSpace=wrap;rounded=0;" vertex="1" parent="AwgWJLQxV-1oAEGPnosM-1">
          <mxGeometry x="977.5" y="600" width="40" height="20" as="geometry" />
        </mxCell>
        <mxCell id="AwgWJLQxV-1oAEGPnosM-18" value="ABILITY TO PERFORM RECOVERY OPERATIONS - FREQUENT AND INFREQENT OPERATIONS" style="text;html=1;strokeColor=none;fillColor=none;align=center;verticalAlign=middle;whiteSpace=wrap;rounded=0;" vertex="1" parent="AwgWJLQxV-1oAEGPnosM-1">
          <mxGeometry x="600" y="670" width="40" height="20" as="geometry" />
        </mxCell>
        <mxCell id="AwgWJLQxV-1oAEGPnosM-19" value="SECOPS CONSIDERATIONS&lt;br&gt;RANSOMWARE&lt;br&gt;" style="text;html=1;strokeColor=none;fillColor=none;align=center;verticalAlign=middle;whiteSpace=wrap;rounded=0;" vertex="1" parent="AwgWJLQxV-1oAEGPnosM-1">
          <mxGeometry x="850" y="670" width="40" height="20" as="geometry" />
        </mxCell>
        <mxCell id="AwgWJLQxV-1oAEGPnosM-20" value="" style="outlineConnect=0;fontColor=#232F3E;gradientColor=none;fillColor=#277116;strokeColor=none;dashed=0;verticalLabelPosition=bottom;verticalAlign=top;align=center;html=1;fontSize=12;fontStyle=0;aspect=fixed;pointerEvents=1;shape=mxgraph.aws4.bucket;" vertex="1" parent="AwgWJLQxV-1oAEGPnosM-1">
          <mxGeometry x="960" y="390" width="75" height="78" as="geometry" />
        </mxCell>
        <mxCell id="AwgWJLQxV-1oAEGPnosM-21" value="D:\&lt;br&gt;SAS&lt;br&gt;3.7TB" style="shape=cylinder3;whiteSpace=wrap;html=1;boundedLbl=1;backgroundOutline=1;size=15;" vertex="1" parent="AwgWJLQxV-1oAEGPnosM-1">
          <mxGeometry x="540" y="195" width="110" height="100" as="geometry" />
        </mxCell>
        <mxCell id="AwgWJLQxV-1oAEGPnosM-22" value="" style="shape=flexArrow;endArrow=classic;html=1;" edge="1" parent="AwgWJLQxV-1oAEGPnosM-1" source="AwgWJLQxV-1oAEGPnosM-11" target="AwgWJLQxV-1oAEGPnosM-20">
          <mxGeometry width="50" height="50" relative="1" as="geometry">
            <mxPoint x="600" y="430" as="sourcePoint" />
            <mxPoint x="447.375" y="414" as="targetPoint" />
          </mxGeometry>
        </mxCell>
        <mxCell id="AwgWJLQxV-1oAEGPnosM-23" value="SCHEDULED COPY&lt;br&gt;COULD USE&lt;br&gt;AWS S3 CP HTTPS://MYBUCKET.S3.AMAZONAWS.COM" style="text;html=1;strokeColor=none;fillColor=none;align=left;verticalAlign=middle;whiteSpace=wrap;rounded=0;" vertex="1" parent="AwgWJLQxV-1oAEGPnosM-1">
          <mxGeometry x="176.5" y="360" width="290" height="20" as="geometry" />
        </mxCell>
        <mxCell id="AwgWJLQxV-1oAEGPnosM-24" value="aws s3 cp s3://bucket d:\ local" style="text;html=1;strokeColor=none;fillColor=none;align=center;verticalAlign=middle;whiteSpace=wrap;rounded=0;fontStyle=1" vertex="1" parent="AwgWJLQxV-1oAEGPnosM-1">
          <mxGeometry x="160" y="448" width="230" height="20" as="geometry" />
        </mxCell>
        <mxCell id="AwgWJLQxV-1oAEGPnosM-25" value="VEEAM VM&lt;br&gt;BACKUP TO?" style="rounded=1;whiteSpace=wrap;html=1;align=left;fillColor=#dae8fc;strokeColor=#6c8ebf;" vertex="1" parent="AwgWJLQxV-1oAEGPnosM-1">
          <mxGeometry x="303" y="310" width="163.5" height="60" as="geometry" />
        </mxCell>
      </root>
    </mxGraphModel>
  </diagram>
  <diagram id="-i4AYbGMD8pZHsoNGPkj" name="Page-9">
    <mxGraphModel dx="1300" dy="579" grid="1" gridSize="10" guides="1" tooltips="1" connect="1" arrows="1" fold="1" page="1" pageScale="1" pageWidth="1169" pageHeight="827" math="0" shadow="0">
      <root>
        <mxCell id="8SakO2kIsdZQfLIulCzO-0" />
        <mxCell id="8SakO2kIsdZQfLIulCzO-1" parent="8SakO2kIsdZQfLIulCzO-0" />
      </root>
    </mxGraphModel>
  </diagram>
</mxfile>
